<svg width="24" height="24" viewBox="0 0 24 24" fill="none" xmlns="http://www.w3.org/2000/svg">
<path d="M14 17C14.5523 17 15 17.4477 15 18C15 18.5523 14.5523 19 14 19H3C2.44772 19 2 18.5523 2 18C2 17.4477 2.44772 17 3 17H14ZM14 11C14.5523 11 15 11.4477 15 12C15 12.5523 14.5523 13 14 13H3C2.44772 13 2 12.5523 2 12C2 11.4477 2.44772 11 3 11H14ZM14 5C14.5523 5 15 5.44772 15 6C15 6.55228 14.5523 7 14 7H3C2.44772 7 2 6.55228 2 6C2 5.44772 2.44772 5 3 5H14Z" fill="#B8B8B8"/>
<path d="M17 5C17 4.44772 17.4477 4 18 4C18.5523 4 19 4.44772 19 5V16.5859L20.293 15.293C20.6835 14.9024 21.3165 14.9024 21.707 15.293C22.0976 15.6835 22.0976 16.3165 21.707 16.707L18.707 19.707C18.421 19.993 17.9909 20.0786 17.6172 19.9238C17.2436 19.769 17 19.4044 17 19V5Z" fill="#B8B8B8"/>
</svg>
