<svg width="24" height="24" viewBox="0 0 24 24" fill="none" xmlns="http://www.w3.org/2000/svg">
<path d="M20.001 17.6543L20 6.53418C17.4461 5.84827 15.5777 5.84336 13 6.53614V17.6914C15.4477 17.0975 17.4588 17.0819 19.9336 17.6738C19.9557 17.6791 19.9762 17.6742 19.9922 17.6621C19.9974 17.6581 20.0002 17.6554 20.001 17.6543ZM4.00781 17.6621C4.02379 17.6742 4.04434 17.6791 4.06641 17.6738C6.54116 17.0819 8.55225 17.0975 11 17.6914V6.52637C9.80626 6.19181 8.79214 6.02516 7.80371 6.00293C6.63439 5.97667 5.45198 6.14982 4 6.53711V17.6543H3.99902C3.99977 17.6554 4.00258 17.6581 4.00781 17.6621ZM22 17.6543C22 19.0157 20.705 19.9147 19.4688 19.6191C16.9677 19.0209 15.0688 19.1192 12.2881 19.957C12.1001 20.0136 11.8999 20.0136 11.7119 19.957C8.93123 19.1192 7.03231 19.0209 4.53125 19.6191C3.37232 19.8962 2.16162 19.1235 2.01465 17.9043L2 17.6543V6.52735L2.00684 6.36329C2.07414 5.54871 2.63726 4.83208 3.46191 4.61133L4.0459 4.46192C5.39034 4.13716 6.60592 3.97502 7.84863 4.00293C9.18202 4.03292 10.5027 4.28365 12.0059 4.73829C15.1479 3.82864 17.4543 3.77653 20.5449 4.61036C21.4236 4.84744 22 5.64755 22 6.52344V17.6543Z" fill="#B8B8B8"/>
</svg>
