<svg width="24" height="24" viewBox="0 0 24 24" fill="none" xmlns="http://www.w3.org/2000/svg">
<path d="M16.9014 8.1543C16.3861 8.15427 15.8908 7.95492 15.5186 7.59863L13.8486 6H10.1514L8.48145 7.59863C8.10923 7.95491 7.61388 8.15427 7.09863 8.1543H4V18H20V8.1543H16.9014ZM22 18C22 19.1046 21.1046 20 20 20H4C2.89543 20 2 19.1046 2 18V8.1543C2 7.04973 2.89543 6.1543 4 6.1543H7.09863L8.76855 4.55566C9.14078 4.19935 9.63609 4.00003 10.1514 4H13.8486C14.3639 4.00003 14.8592 4.19935 15.2314 4.55566L16.9014 6.1543H20C21.1046 6.1543 22 7.04973 22 8.1543V18Z" fill="#B8B8B8"/>
<path d="M14 13C14 11.8954 13.1046 11 12 11C10.8954 11 10 11.8954 10 13C10 14.1046 10.8954 15 12 15C13.1046 15 14 14.1046 14 13ZM16 13C16 15.2091 14.2091 17 12 17C9.79086 17 8 15.2091 8 13C8 10.7909 9.79086 9 12 9C14.2091 9 16 10.7909 16 13Z" fill="#B8B8B8"/>
<path d="M18 10C18 10.5523 17.5523 11 17 11C16.4477 11 16 10.5523 16 10C16 9.44772 16.4477 9 17 9C17.5523 9 18 9.44772 18 10Z" fill="#B8B8B8"/>
</svg>
