<svg width="24" height="24" viewBox="0 0 24 24" fill="none" xmlns="http://www.w3.org/2000/svg">
<path d="M3 18V15C3 14.4477 3.44772 14 4 14C4.55228 14 5 14.4477 5 15V18C5 18.5523 5.44772 19 6 19H9C9.55228 19 10 19.4477 10 20C10 20.5523 9.55228 21 9 21H6C4.34315 21 3 19.6569 3 18ZM19 18V15C19 14.4477 19.4477 14 20 14C20.5523 14 21 14.4477 21 15V18C21 19.6569 19.6569 21 18 21H15C14.4477 21 14 20.5523 14 20C14 19.4477 14.4477 19 15 19H18C18.5523 19 19 18.5523 19 18ZM3 9V6C3 4.34315 4.34315 3 6 3H9C9.55228 3 10 3.44772 10 4C10 4.55228 9.55228 5 9 5H6C5.44772 5 5 5.44772 5 6V9C5 9.55228 4.55228 10 4 10C3.44772 10 3 9.55228 3 9ZM19 9V6C19 5.44772 18.5523 5 18 5H15C14.4477 5 14 4.55228 14 4C14 3.44772 14.4477 3 15 3H18C19.6569 3 21 4.34315 21 6V9C21 9.55228 20.5523 10 20 10C19.4477 10 19 9.55228 19 9Z" fill="#B8B8B8"/>
<path d="M14 12C14 10.8954 13.1046 10 12 10C10.8954 10 10 10.8954 10 12C10 13.1046 10.8954 14 12 14V16C9.79086 16 8 14.2091 8 12C8 9.79086 9.79086 8 12 8C14.2091 8 16 9.79086 16 12C16 14.2091 14.2091 16 12 16V14C13.1046 14 14 13.1046 14 12Z" fill="#B8B8B8"/>
</svg>
