<svg width="24" height="24" viewBox="0 0 24 24" fill="none" xmlns="http://www.w3.org/2000/svg">
<path d="M8.17285 2.76075C10.0001 2.00388 12.0114 1.80654 13.9512 2.19239C15.5262 2.50574 16.9971 3.19257 18.2432 4.18849C19.1989 4.9524 19.1209 6.29274 18.3643 7.04982L13.4141 12L18.3643 16.9502C19.1209 17.7073 19.1989 19.0476 18.2432 19.8115C16.9971 20.8075 15.5262 21.4943 13.9512 21.8076C12.0114 22.1935 10.0001 21.9961 8.17285 21.2393C6.34567 20.4824 4.78434 19.2001 3.68555 17.5557C2.58673 15.9112 2 13.9778 2 12C2 10.0222 2.58673 8.08884 3.68555 6.44435C4.78434 4.79993 6.34567 3.51762 8.17285 2.76075ZM4 12C4 13.5823 4.46958 15.1288 5.34863 16.4443C6.22764 17.7599 7.47676 18.7851 8.93848 19.3906C10.4002 19.9961 12.0088 20.1553 13.5605 19.8467C14.7832 19.6035 15.9257 19.0762 16.9033 18.3174L12 13.4141C11.2191 12.633 11.2191 11.367 12 10.5859L16.9033 5.68165C15.9258 4.92308 14.783 4.39649 13.5605 4.15333C12.0088 3.84471 10.4002 4.00392 8.93848 4.60939C7.47676 5.21489 6.22764 6.24015 5.34863 7.55567C4.46958 8.87127 4 10.4178 4 12Z" fill="#B8B8B8"/>
<path d="M11 4.06445C10.033 4.18631 9.09297 4.48225 8.22847 4.94434C7.06827 5.5645 6.07947 6.46182 5.34859 7.55566C4.61767 8.64955 4.16699 9.90655 4.03804 11.2158C3.90909 12.5251 4.10587 13.8461 4.60933 15.0615C5.11279 16.2769 5.90783 17.35 6.92476 18.1846C7.94169 19.0191 9.14917 19.59 10.4394 19.8467C11.7297 20.1033 13.0633 20.0372 14.3222 19.6553C15.2602 19.3707 16.1334 18.915 16.9033 18.3174L11.5859 13C11.2109 12.625 11 12.1163 11 11.5859V4.06445ZM18.3642 16.9502C19.1209 17.7073 19.1989 19.0476 18.2431 19.8115C17.2541 20.602 16.1213 21.1998 14.9033 21.5693C13.3296 22.0467 11.6617 22.1284 10.0488 21.8076C8.43611 21.4868 6.92729 20.7735 5.6562 19.7305C4.38501 18.6872 3.39003 17.3464 2.7607 15.8271C2.13137 14.3078 1.88662 12.6561 2.04781 11.0195C2.20903 9.38304 2.77191 7.81162 3.6855 6.44434C4.59914 5.07701 5.83579 3.95586 7.28609 3.18066C8.40878 2.58059 9.6331 2.20193 10.8916 2.06152L11.1152 2.04883C12.2154 2.05116 13 2.99632 13 4V11.5859L18.3642 16.9502Z" fill="#B8B8B8"/>
<path d="M20 12C20 7.58172 16.4183 4 12 4C7.58172 4 4 7.58172 4 12C4 16.4183 7.58172 20 12 20C16.4183 20 20 16.4183 20 12ZM22 12C22 17.5228 17.5228 22 12 22C6.47715 22 2 17.5228 2 12C2 6.47715 6.47715 2 12 2C17.5228 2 22 6.47715 22 12Z" fill="#B8B8B8"/>
</svg>
