<svg width="24" height="24" viewBox="0 0 24 24" fill="none" xmlns="http://www.w3.org/2000/svg">
<path d="M4 5V10.1318L6.94531 8.16797C7.31808 7.91946 7.81023 7.94965 8.15039 8.24121L11.0752 10.749L19.4453 5.16797C19.9048 4.86162 20.5257 4.98578 20.832 5.44531C21.1384 5.90484 21.0142 6.52568 20.5547 6.83203L11.5547 12.832L11.4102 12.9121C11.0614 13.0691 10.6473 13.014 10.3496 12.7588L7.42578 10.252L4 12.5352V14.1318L6.94531 12.168C7.31808 11.9195 7.81023 11.9496 8.15039 12.2412L11.0752 14.749L19.4453 9.16797C19.7521 8.96344 20.1466 8.94426 20.4717 9.11816C20.7968 9.29218 21 9.6312 21 10V18C21.5523 18 22 18.4477 22 19C22 19.5523 21.5523 20 21 20H3C2.44772 20 2 19.5523 2 19V5C2 4.44772 2.44772 4 3 4C3.55228 4 4 4.44772 4 5ZM19 11.8691L11.5547 16.832L11.4102 16.9121C11.0614 17.0691 10.6473 17.014 10.3496 16.7588L7.42578 14.252L4 16.5352V18H19V11.8691Z" fill="#B8B8B8"/>
</svg>
