<svg width="24" height="24" viewBox="0 0 24 24" fill="none" xmlns="http://www.w3.org/2000/svg">
<path d="M4 5V18H21C21.5523 18 22 18.4477 22 19C22 19.5523 21.5523 20 21 20H4C2.89543 20 2 19.1046 2 18V5C2 4.44772 2.44772 4 3 4C3.55228 4 4 4.44772 4 5Z" fill="#B8B8B8"/>
<path d="M8 10L8.10254 10.0049C8.60667 10.0562 9 10.4823 9 11V19C9 19.5523 8.55228 20 8 20H7C6.44772 20 6 19.5523 6 19V11C6 10.4477 6.44772 10 7 10H8ZM13 13C13.5523 13 14 13.4477 14 14V19C14 19.5523 13.5523 20 13 20H12C11.4477 20 11 19.5523 11 19V14C11 13.4477 11.4477 13 12 13H13ZM18 6C18.5523 6 19 6.44772 19 7V19C19 19.5523 18.5523 20 18 20H17C16.4477 20 16 19.5523 16 19V7C16 6.44772 16.4477 6 17 6H18Z" fill="#B8B8B8"/>
</svg>
