<svg width="24" height="24" viewBox="0 0 24 24" fill="none" xmlns="http://www.w3.org/2000/svg">
<path d="M4 5V11.9199L6.67676 9.77832C7.4725 9.14188 8.61929 9.2053 9.33984 9.92578L12 12.5859L17.293 7.29297C17.6835 6.90244 18.3165 6.90244 18.707 7.29297C19.0976 7.68349 19.0976 8.31651 18.707 8.70703L13.4141 14C12.633 14.7809 11.367 14.7809 10.5859 14L7.92578 11.3398L4 14.4814V18H21C21.5523 18 22 18.4477 22 19C22 19.5523 21.5523 20 21 20H4C2.89543 20 2 19.1046 2 18V5C2 4.44772 2.44772 4 3 4C3.55228 4 4 4.44772 4 5Z" fill="#B8B8B8"/>
<path d="M10 10C10 11.1046 9.10457 12 8 12C6.89543 12 6 11.1046 6 10C6 8.89543 6.89543 8 8 8C9.10457 8 10 8.89543 10 10Z" fill="#B8B8B8"/>
<path d="M20 8C20 9.10457 19.1046 10 18 10C16.8954 10 16 9.10457 16 8C16 6.89543 16.8954 6 18 6C19.1046 6 20 6.89543 20 8Z" fill="#B8B8B8"/>
<path d="M14 14C14 15.1046 13.1046 16 12 16C10.8954 16 10 15.1046 10 14C10 12.8954 10.8954 12 12 12C13.1046 12 14 12.8954 14 14Z" fill="#B8B8B8"/>
</svg>
