<svg width="24" height="24" viewBox="0 0 24 24" fill="none" xmlns="http://www.w3.org/2000/svg">
<path d="M18 12C18 10.3869 17.244 8.88625 16.0781 7.77344C14.9058 6.65446 13.394 6 12 6C10.606 6 9.09424 6.65446 7.92188 7.77344C6.75599 8.88625 6 10.3869 6 12C6 13.5044 6.47337 14.8663 7.23926 15.9082C7.39738 16.1236 7.4629 16.3933 7.4209 16.6572L7.13086 18.4707L9.0293 17.7715L9.19336 17.7266C9.36068 17.6957 9.5344 17.7083 9.69727 17.7637C9.84953 17.8154 10.2432 17.881 10.7627 17.9307C11.2505 17.9773 11.7353 18 12 18C13.394 18 14.9058 17.3455 16.0781 16.2266C17.244 15.1137 18 13.6131 18 12ZM20 12C20 14.2528 18.9473 16.2522 17.459 17.6729C15.977 19.0873 13.9887 20 12 20C11.6566 20 11.1063 19.972 10.5723 19.9209C10.2086 19.8861 9.78611 19.8335 9.42773 19.7559L6.2207 20.9385C5.8876 21.0612 5.5145 20.9978 5.24023 20.7725C4.96598 20.5471 4.83187 20.1933 4.8877 19.8428L4.89258 19.8154C4.89511 19.7996 4.89777 19.7767 4.90234 19.748C4.91206 19.6871 4.92673 19.5987 4.94434 19.4883C4.96332 19.3692 4.98672 19.2244 5.0127 19.0615L5.38184 16.7363C4.50902 15.4031 4 13.7626 4 12C4 9.74722 5.05266 7.74782 6.54102 6.32715C8.02295 4.91266 10.0113 4 12 4C13.9887 4 15.977 4.91266 17.459 6.32715C18.9473 7.74782 20 9.74722 20 12Z" fill="#B8B8B8"/>
</svg>
