<svg width="24" height="24" viewBox="0 0 24 24" fill="none" xmlns="http://www.w3.org/2000/svg">
<path d="M15.293 9.29297C15.6835 8.90245 16.3166 8.90245 16.7071 9.29297C17.0976 9.68349 17.0976 10.3165 16.7071 10.707L12.4141 15C11.6331 15.7809 10.367 15.781 9.58598 15L7.79302 13.207C7.40249 12.8165 7.40249 12.1835 7.79302 11.793C8.18354 11.4024 8.81655 11.4024 9.20708 11.793L11 13.5859L15.293 9.29297Z" fill="#B8B8B8"/>
<path d="M20 12C20 7.58172 16.4183 4 12 4C7.58172 4 4 7.58172 4 12C4 16.4183 7.58172 20 12 20V22C6.47715 22 2 17.5228 2 12C2 6.47715 6.47715 2 12 2C17.5228 2 22 6.47715 22 12C22 17.5228 17.5228 22 12 22V20C16.4183 20 20 16.4183 20 12Z" fill="#B8B8B8"/>
</svg>
