<svg width="24" height="24" viewBox="0 0 24 24" fill="none" xmlns="http://www.w3.org/2000/svg">
<path d="M20 12C20 7.58172 16.4183 4 12 4C7.58172 4 4 7.58172 4 12C4 16.4183 7.58172 20 12 20V22C6.47715 22 2 17.5228 2 12C2 6.47715 6.47715 2 12 2C17.5228 2 22 6.47715 22 12C22 17.5228 17.5228 22 12 22V20C16.4183 20 20 16.4183 20 12Z" fill="#B8B8B8"/>
<path d="M13 16C13 16.5523 12.5523 17 12 17C11.4477 17 11 16.5523 11 16C11 15.4477 11.4477 15 12 15C12.5523 15 13 15.4477 13 16Z" fill="#B8B8B8"/>
<path d="M11 13C11 12.0557 11.4448 11.1662 12.2002 10.5996L12.7334 10.2002C12.9012 10.0744 12.9999 9.87671 13 9.66699C13 9.29881 12.7012 9 12.333 9H11.8281C11.5262 9.00009 11.3079 9.11118 11.1963 9.24414C11.0966 9.36289 11.0406 9.44824 11.0117 9.50488C11.0042 9.5197 11.0003 9.53014 10.998 9.53613C10.979 10.0717 10.5402 10.5 10 10.5C9.44772 10.5 9 10.0523 9 9.5C9 8.82174 9.39219 8.28413 9.66504 7.95898C10.2353 7.27945 11.0695 7.00009 11.8281 7H12.333C13.8058 7 15 8.19424 15 9.66699C14.9999 10.5061 14.6048 11.2963 13.9336 11.7998L13.4004 12.2002C13.1486 12.389 13 12.6852 13 13C13 13.5523 12.5523 14 12 14C11.4477 14 11 13.5523 11 13Z" fill="#B8B8B8"/>
</svg>
