<svg width="24" height="24" viewBox="0 0 24 24" fill="none" xmlns="http://www.w3.org/2000/svg">
<path d="M8.5 9C8.5 8.44772 8.94772 8 9.5 8C10.0523 8 10.5 8.44772 10.5 9V15C10.5 15.5523 10.0523 16 9.5 16C8.94772 16 8.5 15.5523 8.5 15V9Z" fill="#B8B8B8"/>
<path d="M13.5 9C13.5 8.44772 13.9477 8 14.5 8C15.0523 8 15.5 8.44772 15.5 9V15C15.5 15.5523 15.0523 16 14.5 16C13.9477 16 13.5 15.5523 13.5 15V9Z" fill="#B8B8B8"/>
<path d="M20 12C20 7.58172 16.4183 4 12 4C7.58172 4 4 7.58172 4 12C4 16.4183 7.58172 20 12 20V22C6.47715 22 2 17.5228 2 12C2 6.47715 6.47715 2 12 2C17.5228 2 22 6.47715 22 12C22 17.5228 17.5228 22 12 22V20C16.4183 20 20 16.4183 20 12Z" fill="#B8B8B8"/>
</svg>
