<svg width="24" height="24" viewBox="0 0 24 24" fill="none" xmlns="http://www.w3.org/2000/svg">
<path d="M17.293 5.29297C17.6835 4.90245 18.3166 4.90245 18.7071 5.29297C19.0976 5.68349 19.0976 6.31651 18.7071 6.70703L13.4141 12L18.7071 17.293C19.0976 17.6835 19.0976 18.3165 18.7071 18.707C18.3166 19.0976 17.6835 19.0976 17.293 18.707L12 13.4141L6.70708 18.707C6.31655 19.0976 5.68354 19.0976 5.29302 18.707C4.90249 18.3165 4.90249 17.6835 5.29302 17.293L10.586 12L5.29302 6.70703C4.90249 6.31651 4.90249 5.68349 5.29302 5.29297C5.68354 4.90245 6.31655 4.90245 6.70708 5.29297L12 10.5859L17.293 5.29297Z" fill="#B8B8B8"/>
</svg>
