<svg width="24" height="24" viewBox="0 0 24 24" fill="none" xmlns="http://www.w3.org/2000/svg">
<path d="M17 4C18.1046 4 19 4.89543 19 6V10.8037C18.3925 10.4523 17.718 10.2045 17 10.084V6H7V18H10.3428C10.6063 18.7454 11.0126 19.4229 11.5293 20H7C5.89543 20 5 19.1046 5 18V6C5 4.89543 5.89543 4 7 4H17ZM10.1885 14.5C10.0651 14.9794 10 15.4821 10 16C10 16.1684 10.0089 16.3351 10.0225 16.5H9C8.44772 16.5 8 16.0523 8 15.5C8 14.9477 8.44772 14.5 9 14.5H10.1885ZM12.6836 11C11.9133 11.5119 11.2692 12.1973 10.8047 13H9C8.44772 13 8 12.5523 8 12C8 11.4477 8.44772 11 9 11H12.6836ZM15 7.5C15.5523 7.5 16 7.94772 16 8.5C16 9.05228 15.5523 9.5 15 9.5H9C8.44772 9.5 8 9.05228 8 8.5C8 7.94772 8.44772 7.5 9 7.5H15Z" fill="#B8B8B8"/>
<path d="M20 16C20 13.7909 18.2091 12 16 12C13.7909 12 12 13.7909 12 16C12 18.2091 13.7909 20 16 20V22C12.6863 22 10 19.3137 10 16C10 12.6863 12.6863 10 16 10C19.3137 10 22 12.6863 22 16C22 19.3137 19.3137 22 16 22V20C18.2091 20 20 18.2091 20 16Z" fill="#B8B8B8"/>
<path d="M15 16V14C15 13.4477 15.4477 13 16 13C16.5523 13 17 13.4477 17 14V16C17 16.5523 16.5523 17 16 17C15.4477 17 15 16.5523 15 16Z" fill="#B8B8B8"/>
<path d="M17.5 15C18.0523 15 18.5 15.4477 18.5 16C18.5 16.5523 18.0523 17 17.5 17H16C15.4477 17 15 16.5523 15 16C15 15.4477 15.4477 15 16 15H17.5Z" fill="#B8B8B8"/>
</svg>
