<svg width="24" height="24" viewBox="0 0 24 24" fill="none" xmlns="http://www.w3.org/2000/svg">
<path d="M6 8V19H15V8H6ZM13 14.5C13.5523 14.5 14 14.9477 14 15.5C14 16.0523 13.5523 16.5 13 16.5H8C7.44772 16.5 7 16.0523 7 15.5C7 14.9477 7.44772 14.5 8 14.5H13ZM13 10.5C13.5523 10.5 14 10.9477 14 11.5C14 12.0523 13.5523 12.5 13 12.5H8C7.44772 12.5 7 12.0523 7 11.5C7 10.9477 7.44772 10.5 8 10.5H13ZM17 19C17 20.1046 16.1046 21 15 21H6C4.89543 21 4 20.1046 4 19V8C4 6.89543 4.89543 6 6 6H15C16.1046 6 17 6.89543 17 8V19Z" fill="#B8B8B8"/>
<path d="M18 17V6C18 5.44772 17.5523 5 17 5H8C7.44772 5 7 4.55228 7 4C7 3.44772 7.44772 3 8 3H17C18.6569 3 20 4.34315 20 6V17C20 17.5523 19.5523 18 19 18C18.4477 18 18 17.5523 18 17Z" fill="#B8B8B8"/>
</svg>
