<svg width="24" height="24" viewBox="0 0 24 24" fill="none" xmlns="http://www.w3.org/2000/svg">
<path d="M4 18V6C4 4.89543 4.89543 4 6 4H12C12.5523 4 13 4.44772 13 5C13 5.55228 12.5523 6 12 6H6V18H18V12C18 11.4477 18.4477 11 19 11C19.5523 11 20 11.4477 20 12V18C20 19.1046 19.1046 20 18 20H6C4.89543 20 4 19.1046 4 18ZM21 9C21 9.55228 20.5523 10 20 10C19.4477 9.99998 19 9.55227 19 9V6.41406L11.707 13.707C11.3165 14.0976 10.6835 14.0976 10.293 13.707C9.90245 13.3165 9.90245 12.6835 10.293 12.293L17.5859 5H15C14.4477 4.99998 14 4.55227 14 4C14 3.44773 14.4477 3.00002 15 3H20C20.5523 3 21 3.44772 21 4V9Z" fill="#B8B8B8"/>
</svg>
