<svg width="24" height="24" viewBox="0 0 24 24" fill="none" xmlns="http://www.w3.org/2000/svg">
<path d="M14.2247 5.2539C9.84215 4.24186 5.06988 6.26245 2.56943 11.1191C2.28577 11.6703 2.28576 12.3297 2.56943 12.8809C3.1205 13.9512 3.7828 14.8875 4.53135 15.6846C4.90943 16.0872 5.54283 16.1066 5.94541 15.7285C6.34763 15.3504 6.36732 14.7179 5.98936 14.3154C5.38074 13.6674 4.83171 12.8965 4.36631 12C6.47237 7.94319 10.3369 6.40792 13.7755 7.20215C14.3135 7.32624 14.8504 6.99114 14.9747 6.45312C15.0988 5.91509 14.7627 5.37817 14.2247 5.2539Z" fill="#B8B8B8"/>
<path d="M19.4691 8.31543C19.091 7.91284 18.4576 7.89341 18.055 8.27149C17.6527 8.64959 17.6331 9.28208 18.0111 9.68457C18.6196 10.3326 19.1698 11.1027 19.6351 11.999C17.5293 16.0568 13.664 17.5913 10.2249 16.7969C9.68691 16.6728 9.14998 17.0089 9.0257 17.5469C8.90158 18.0848 9.23684 18.6217 9.77473 18.7461C14.1575 19.7585 18.9306 17.7378 21.431 12.8809C21.7146 12.3297 21.7146 11.6703 21.431 11.1191L21.2191 10.7236C20.7129 9.81665 20.124 9.01284 19.4691 8.31543Z" fill="#B8B8B8"/>
<path d="M19.207 4.79297C18.8165 4.40245 18.1834 4.40245 17.7929 4.79297L4.79292 17.793C4.4024 18.1835 4.4024 18.8165 4.79292 19.207C5.18345 19.5976 5.81646 19.5976 6.20698 19.207L19.207 6.20703C19.5975 5.81651 19.5975 5.18349 19.207 4.79297Z" fill="#B8B8B8"/>
</svg>
