<svg width="24" height="24" viewBox="0 0 24 24" fill="none" xmlns="http://www.w3.org/2000/svg">
<path d="M12.0001 5C15.7078 5.00003 19.3544 7.08605 21.4308 11.1191C21.7144 11.6703 21.7144 12.3297 21.4308 12.8809C19.3544 16.914 15.7078 19 12.0001 19C8.29237 19 4.64576 16.914 2.56944 12.8809C2.28578 12.3297 2.28576 11.6703 2.56944 11.1191L2.76866 10.7461C4.87378 6.95723 8.40834 5.00001 12.0001 5ZM12.0001 7C9.08979 7.00001 6.11914 8.62122 4.36534 12C6.11913 15.3788 9.08977 17 12.0001 17C14.9103 17 17.88 15.3785 19.6339 12C17.88 8.62152 14.9103 7.00003 12.0001 7Z" fill="#B8B8B8"/>
<path d="M14 12C14 10.8954 13.1046 10 12 10C10.8954 10 10 10.8954 10 12C10 13.1046 10.8954 14 12 14C13.1046 14 14 13.1046 14 12ZM16 12C16 14.2091 14.2091 16 12 16C9.79086 16 8 14.2091 8 12C8 9.79086 9.79086 8 12 8C14.2091 8 16 9.79086 16 12Z" fill="#B8B8B8"/>
</svg>
