<svg width="24" height="24" viewBox="0 0 24 24" fill="none" xmlns="http://www.w3.org/2000/svg">
<path d="M5 11V19H19V11H5ZM21 19C21 20.1046 20.1046 21 19 21H5C3.89543 21 3 20.1046 3 19V11C3 9.89543 3.89543 9 5 9H19C20.1046 9 21 9.89543 21 11V19Z" fill="#B8B8B8"/>
<path d="M19 6C19.5523 6 20 6.44772 20 7C20 7.55228 19.5523 8 19 8H5C4.44772 8 4 7.55228 4 7C4 6.44772 4.44772 6 5 6H19ZM18 3C18.5523 3 19 3.44772 19 4C19 4.55228 18.5523 5 18 5H6C5.44772 5 5 4.55228 5 4C5 3.44772 5.44772 3 6 3H18Z" fill="#B8B8B8"/>
</svg>
