<svg width="24" height="24" viewBox="0 0 24 24" fill="none" xmlns="http://www.w3.org/2000/svg">
<path d="M20 3C20.3787 3 20.7251 3.21395 20.8945 3.55273C21.0638 3.89146 21.0269 4.29661 20.7998 4.59961L15 12.332V18C15 18.3788 14.786 18.7251 14.4472 18.8945L10.4472 20.8945C10.1373 21.0495 9.76934 21.0327 9.47456 20.8506C9.17975 20.6684 8.99995 20.3466 8.99995 20V12.332L3.20015 4.59961C2.97299 4.29661 2.93606 3.89146 3.10542 3.55273C3.27481 3.21395 3.62118 3 3.99995 3H20ZM10.7998 11.4004C10.9295 11.5735 11 11.7837 11 12V18.3818L13 17.3818V12C13 11.7837 13.0704 11.5735 13.2001 11.4004L18.0009 5H5.99898L10.7998 11.4004Z" fill="#B8B8B8"/>
</svg>
