<svg width="24" height="24" viewBox="0 0 24 24" fill="none" xmlns="http://www.w3.org/2000/svg">
<path d="M9.29297 13.293C9.68349 12.9024 10.3165 12.9024 10.707 13.293C11.0976 13.6835 11.0976 14.3165 10.707 14.707L6.41406 19H9C9.55228 19 10 19.4477 10 20C10 20.5523 9.55228 21 9 21H4C3.44772 21 3 20.5523 3 20V15C3 14.4477 3.44772 14 4 14C4.55228 14 5 14.4477 5 15V17.5859L9.29297 13.293ZM21 9C21 9.55228 20.5523 10 20 10C19.4477 10 19 9.55228 19 9V6.41406L14.707 10.707C14.3165 11.0976 13.6835 11.0976 13.293 10.707C12.9024 10.3165 12.9024 9.68349 13.293 9.29297L17.5859 5H15C14.4477 5 14 4.55228 14 4C14 3.44772 14.4477 3 15 3H20C20.5523 3 21 3.44772 21 4V9Z" fill="#B8B8B8"/>
</svg>
