<svg width="24" height="24" viewBox="0 0 24 24" fill="none" xmlns="http://www.w3.org/2000/svg">
<path d="M11 4C11 5.10457 10.1046 6 9 6H8.41406C7.88368 5.99996 7.37504 5.7891 7 5.41406L5.41406 7C5.7891 7.37504 5.99996 7.88368 6 8.41406V9C6 10.1046 5.10457 11 4 11V13C5.10457 13 6 13.8954 6 15V15.5859C5.99996 16.1163 5.7891 16.625 5.41406 17L7 18.5859C7.37504 18.2109 7.88368 18 8.41406 18H9C10.1046 18 11 18.8954 11 20H13C13 18.8954 13.8954 18 15 18H15.5859C16.1163 18 16.625 18.2109 17 18.5859L18.5859 17C18.2109 16.625 18 16.1163 18 15.5859V15C18 13.8954 18.8954 13 20 13V11C18.8954 11 18 10.1046 18 9V8.41406C18 7.88368 18.2109 7.37504 18.5859 7L17 5.41406C16.625 5.7891 16.1163 5.99996 15.5859 6H15C13.8954 6 13 5.10457 13 4H11ZM15.5859 4C16.367 3.21905 17.633 3.21905 18.4141 4L20 5.58594C20.7809 6.36697 20.7809 7.63303 20 8.41406V9C21.1046 9 22 9.89543 22 11V13C22 14.1046 21.1046 15 20 15V15.5859C20.7809 16.367 20.7809 17.633 20 18.4141L18.4141 20C17.633 20.7809 16.367 20.7809 15.5859 20H15C15 21.1046 14.1046 22 13 22H11C9.89543 22 9 21.1046 9 20H8.41406C7.63303 20.7809 6.36697 20.7809 5.58594 20L4 18.4141C3.26783 17.6818 3.2216 16.5228 3.8623 15.7373L4 15.5859V15C2.89543 15 2 14.1046 2 13V11C2 9.89543 2.89543 9 4 9V8.41406C3.21905 7.63303 3.21905 6.36697 4 5.58594L5.58594 4C6.31818 3.26783 7.47717 3.2216 8.2627 3.8623L8.41406 4H9C9 2.89543 9.89543 2 11 2H13C14.1046 2 15 2.89543 15 4H15.5859Z" fill="#B8B8B8"/>
<path d="M14 12C14 10.8954 13.1046 10 12 10C10.8954 10 10 10.8954 10 12C10 13.1046 10.8954 14 12 14V16C9.79086 16 8 14.2091 8 12C8 9.79086 9.79086 8 12 8C14.2091 8 16 9.79086 16 12C16 14.2091 14.2091 16 12 16V14C13.1046 14 14 13.1046 14 12Z" fill="#B8B8B8"/>
</svg>
