<svg width="24" height="24" viewBox="0 0 24 24" fill="none" xmlns="http://www.w3.org/2000/svg">
<path d="M15.7441 4.00977C17.071 3.92273 18.3717 4.44719 19.3271 5.4502L19.5498 5.69531C21.7551 8.24536 21.0522 11.3204 20.0137 13.5C19.3086 14.9797 17.903 16.4694 16.581 17.6689C15.2343 18.891 13.8663 19.9074 13.1279 20.4336C12.4513 20.9158 11.5496 20.9158 10.873 20.4336C10.1347 19.9074 8.76685 18.8911 7.41991 17.6689C6.0979 16.4694 4.69145 14.9798 3.98632 13.5C2.91452 11.2506 2.19883 8.04616 4.67284 5.4502C5.62849 4.44754 6.92914 3.92288 8.25585 4.00977C9.50994 4.09201 10.7152 4.7149 11.6211 5.85645L11.7978 6.0918L11.8135 6.11426L11.8281 6.13672L12 6.40723L12.1719 6.13672L12.1865 6.11426L12.2021 6.0918C13.1248 4.8008 14.4066 4.09759 15.7441 4.00977ZM15.875 6.00488C15.1838 6.05031 14.4368 6.41031 13.8369 7.24414L13.2666 8.14453C12.6774 9.07178 11.3237 9.07167 10.7344 8.14453L10.1631 7.24414C9.56329 6.41034 8.8162 6.05021 8.12499 6.00488C7.42024 5.95879 6.68933 6.23389 6.12108 6.83008C4.53079 8.49861 4.83181 10.6245 5.79198 12.6397C6.319 13.7456 7.47285 15.0162 8.76366 16.1875C10.0096 17.318 11.2872 18.271 12 18.7803C12.7127 18.271 13.9901 17.3182 15.2363 16.1875C16.5273 15.0161 17.6819 13.7457 18.209 12.6397C19.1688 10.6251 19.4685 8.49882 17.8789 6.83008C17.311 6.23389 16.5798 5.95865 15.875 6.00488Z" fill="#B8B8B8"/>
</svg>
