<svg width="24" height="24" viewBox="0 0 24 24" fill="none" xmlns="http://www.w3.org/2000/svg">
<path d="M20 13C20 11.6154 19.678 11.2178 19.5703 11.1221C19.4596 11.0236 19.3236 11 19 11H18.957L18.9912 15H19C19.3236 15 19.4596 14.9764 19.5703 14.8779C19.678 14.7822 20 14.3846 20 13ZM4 13C4 14.3846 4.32197 14.7822 4.42969 14.8779C4.54044 14.9764 4.67639 15 5 15H5.00879L5.04297 11H5C4.67639 11 4.54044 11.0236 4.42969 11.1221C4.32197 11.2178 4 11.6154 4 13ZM22 13C22 14.6154 21.6345 15.7178 20.8984 16.3721C20.1654 17.0236 19.3014 17 19 17H18.918C18.7859 17.754 18.4858 18.4282 17.957 18.957C17.2034 19.7107 16.1541 20 15 20C14.4478 19.9999 14 19.5523 14 19C14 18.4477 14.4478 18.0001 15 18C15.8458 18 16.2966 17.7893 16.543 17.543C16.7884 17.2975 16.9985 16.849 17 16.0088L16.9482 10.0088C16.9481 9.98874 16.9492 9.96826 16.9502 9.94824C16.9631 9.6949 16.8047 8.6788 16.0771 7.73633C15.3984 6.85716 14.1909 6 12 6C9.81076 6.00002 8.61694 6.85569 7.94434 7.7334C7.2276 8.66884 7.05176 9.70035 7.05176 10V10.0088L7 16.0088C6.99518 16.5576 6.54887 17 6 17H5C4.69865 17 3.83457 17.0236 3.10156 16.3721C2.36552 15.7178 2 14.6154 2 13C2 11.3846 2.36552 10.2822 3.10156 9.62793C3.83457 8.97638 4.69865 9 5 9H5.18555C5.35598 8.27237 5.70929 7.36238 6.35742 6.5166C7.40903 5.14444 9.18952 4.00002 12 4C14.809 4 16.6018 5.1429 17.6602 6.51367C18.3057 7.34982 18.667 8.25848 18.834 9H19C19.3014 9 20.1654 8.97637 20.8984 9.62793C21.6345 10.2822 22 11.3846 22 13Z" fill="#B8B8B8"/>
<path d="M11 11C11 11.5523 10.5523 12 10 12C9.44772 12 9 11.5523 9 11C9 10.4477 9.44772 10 10 10C10.5523 10 11 10.4477 11 11Z" fill="#B8B8B8"/>
<path d="M15 11C15 11.5523 14.5523 12 14 12C13.4477 12 13 11.5523 13 11C13 10.4477 13.4477 10 14 10C14.5523 10 15 10.4477 15 11Z" fill="#B8B8B8"/>
<path d="M9.40023 13.2002C9.84205 12.869 10.4683 12.9586 10.7996 13.4004C11.3996 14.2002 12.6 14.2002 13.2 13.4004C13.5314 12.9586 14.1576 12.869 14.5994 13.2002C15.0412 13.5315 15.1309 14.1578 14.7996 14.5996C13.3996 16.4663 10.6 16.4663 9.20004 14.5996C8.8688 14.1578 8.95846 13.5315 9.40023 13.2002Z" fill="#B8B8B8"/>
<path d="M16.0001 18.5C16.0001 19.2767 15.4098 19.9154 14.6534 19.9922L14.5001 20H12.5001C11.6717 20 11.0001 19.3284 11.0001 18.5C11.0001 17.6716 11.6717 17 12.5001 17H14.5001L14.6534 17.0078C15.4098 17.0846 16.0001 17.7233 16.0001 18.5Z" fill="#B8B8B8"/>
</svg>
