<svg width="24" height="24" viewBox="0 0 24 24" fill="none" xmlns="http://www.w3.org/2000/svg">
<path d="M12.2471 2.03125C12.69 2.1442 13 2.54288 13 3V9H18C18.353 9 18.6802 9.18579 18.8604 9.48926C19.0405 9.79267 19.0468 10.1687 18.878 10.4785L12.878 21.4785C12.6591 21.8798 12.1959 22.0817 11.753 21.9688C11.3101 21.8558 11 21.4571 11 21V15H6.00003C5.6471 15 5.31984 14.8142 5.13968 14.5107C4.95957 14.2073 4.95325 13.8313 5.1221 13.5215L11.1221 2.52149C11.341 2.1202 11.8042 1.91832 12.2471 2.03125ZM7.6846 13H12C12.5523 13 13 13.4477 13 14V17.0781L16.3155 11H12C11.4478 11 11 10.5523 11 10V6.9209L7.6846 13Z" fill="#B8B8B8"/>
</svg>
