<svg width="24" height="24" viewBox="0 0 24 24" fill="none" xmlns="http://www.w3.org/2000/svg">
<path d="M20 17C20.5523 17 21 17.4477 21 18C21 18.5523 20.5523 19 20 19H7C6.44772 19 6 18.5523 6 18C6 17.4477 6.44772 17 7 17H20ZM20 11C20.5523 11 21 11.4477 21 12C21 12.5523 20.5523 13 20 13H7C6.44772 13 6 12.5523 6 12C6 11.4477 6.44772 11 7 11H20ZM20 5C20.5523 5 21 5.44772 21 6C21 6.55228 20.5523 7 20 7H7C6.44772 7 6 6.55228 6 6C6 5.44772 6.44772 5 7 5H20Z" fill="#B8B8B8"/>
<path d="M5 6C5 6.55228 4.55228 7 4 7C3.44772 7 3 6.55228 3 6C3 5.44772 3.44772 5 4 5C4.55228 5 5 5.44772 5 6Z" fill="#B8B8B8"/>
<path d="M5 12C5 12.5523 4.55228 13 4 13C3.44772 13 3 12.5523 3 12C3 11.4477 3.44772 11 4 11C4.55228 11 5 11.4477 5 12Z" fill="#B8B8B8"/>
<path d="M5 18C5 18.5523 4.55228 19 4 19C3.44772 19 3 18.5523 3 18C3 17.4477 3.44772 17 4 17C4.55228 17 5 17.4477 5 18Z" fill="#B8B8B8"/>
</svg>
