<svg width="24" height="24" viewBox="0 0 24 24" fill="none" xmlns="http://www.w3.org/2000/svg">
<path d="M7 20V12C7 11.4477 7.44772 11 8 11C8.55228 11 9 11.4477 9 12V20C9 20.5523 8.55228 21 8 21C7.44772 21 7 20.5523 7 20ZM13 20V4C13 3.44772 13.4477 3 14 3C14.5523 3 15 3.44772 15 4V20C15 20.5523 14.5523 21 14 21C13.4477 21 13 20.5523 13 20ZM16 20V4C16 3.44772 16.4477 3 17 3C17.5523 3 18 3.44772 18 4V20C18 20.5523 17.5523 21 17 21C16.4477 21 16 20.5523 16 20Z" fill="#B8B8B8"/>
<path d="M10 7C10 5.89543 9.10457 5 8 5C6.89543 5 6 5.89543 6 7V9C6 10.1046 6.89543 11 8 11C9.10457 11 10 10.1046 10 9V7ZM12 9C12 11.2091 10.2091 13 8 13C5.79086 13 4 11.2091 4 9V7C4 4.79086 5.79086 3 8 3C10.2091 3 12 4.79086 12 7V9Z" fill="#B8B8B8"/>
</svg>
