<svg width="24" height="24" viewBox="0 0 24 24" fill="none" xmlns="http://www.w3.org/2000/svg">
<path d="M18 12C18 10.3431 16.6569 9 15 9C13.3431 9 12 10.3431 12 12C12 13.6569 13.3431 15 15 15V17C12.2386 17 10 14.7614 10 12C10 9.23858 12.2386 7 15 7C17.7614 7 20 9.23858 20 12C20 14.7614 17.7614 17 15 17V15C16.6569 15 18 13.6569 18 12Z" fill="#B8B8B8"/>
<path d="M17.293 14.293C17.6835 13.9024 18.3166 13.9024 18.7071 14.293L21.7071 17.293C22.0976 17.6835 22.0976 18.3165 21.7071 18.707C21.3166 19.0975 20.6835 19.0975 20.293 18.707L17.293 15.707C16.9025 15.3165 16.9025 14.6835 17.293 14.293Z" fill="#B8B8B8"/>
<path d="M9 15C9.55228 15 10 15.4477 10 16C10 16.5523 9.55228 17 9 17H3C2.44772 17 2 16.5523 2 16C2 15.4477 2.44772 15 3 15H9ZM8 10C8.55228 10 9 10.4477 9 11C9 11.5523 8.55228 12 8 12H3C2.44772 12 2 11.5523 2 11C2 10.4477 2.44772 10 3 10H8ZM11 5C11.5523 5 12 5.44772 12 6C12 6.55228 11.5523 7 11 7H3C2.44772 7 2 6.55228 2 6C2 5.44772 2.44772 5 3 5H11Z" fill="#B8B8B8"/>
</svg>
