<svg width="24" height="24" viewBox="0 0 24 24" fill="none" xmlns="http://www.w3.org/2000/svg">
<path d="M20 15.1162L15.9658 12.0059L7.22559 18H20V15.1162ZM4 6V17.7871L14.834 10.3564C15.5493 9.86581 16.4996 9.89228 17.1865 10.4219L20 12.5908V6H4ZM22 18C22 19.1046 21.1046 20 20 20H4C2.89543 20 2 19.1046 2 18V6C2 4.89543 2.89543 4 4 4H20C21.1046 4 22 4.89543 22 6V18Z" fill="#B8B8B8"/>
<path d="M9 10C9 9.44772 8.55228 9 8 9C7.44772 9 7 9.44772 7 10C7 10.5523 7.44772 11 8 11C8.55228 11 9 10.5523 9 10ZM11 10C11 11.6569 9.65685 13 8 13C6.34315 13 5 11.6569 5 10C5 8.34315 6.34315 7 8 7C9.65685 7 11 8.34315 11 10Z" fill="#B8B8B8"/>
</svg>
