<svg width="24" height="24" viewBox="0 0 24 24" fill="none" xmlns="http://www.w3.org/2000/svg">
<path d="M3 12C3.00002 8.66759 4.81173 5.75971 7.49902 4.20503C7.97697 3.92856 8.5886 4.0915 8.86523 4.56929C9.14171 5.04724 8.97877 5.65886 8.50098 5.9355C6.40608 7.14734 5.00002 9.41025 5 12C5 15.8659 8.13401 19 12 19C15.866 19 19 15.8659 19 12C19 9.41025 17.5939 7.14734 15.499 5.9355C15.0212 5.65886 14.8583 5.04724 15.1348 4.56929C15.4114 4.0915 16.023 3.92856 16.501 4.20503C19.1883 5.75971 21 8.66759 21 12C21 16.9705 16.9706 21 12 21C7.02944 21 3 16.9705 3 12Z" fill="#B8B8B8"/>
<path d="M11 12V3C11 2.44772 11.4477 2 12 2C12.5523 2 13 2.44772 13 3V12C13 12.5523 12.5523 13 12 13C11.4477 13 11 12.5523 11 12Z" fill="#B8B8B8"/>
</svg>
