<svg width="24" height="24" viewBox="0 0 24 24" fill="none" xmlns="http://www.w3.org/2000/svg">
<path d="M10 13C10.5523 13 11 13.4477 11 14V20C11 20.5523 10.5523 21 10 21H4C3.44772 21 3 20.5523 3 20V14C3 13.4477 3.44772 13 4 13H10ZM15 18C15.5523 18 16 18.4477 16 19V20C16 20.5523 15.5523 21 15 21H14C13.4477 21 13 20.5523 13 20V19C13 18.4477 13.4477 18 14 18H15ZM20 18C20.5523 18 21 18.4477 21 19V20C21 20.5523 20.5523 21 20 21H19C18.4477 21 18 20.5523 18 20V19C18 18.4477 18.4477 18 19 18H20ZM5 19H9V15H5V19ZM17.5 15.5C18.0523 15.5 18.5 15.9477 18.5 16.5V17.5C18.5 18.0523 18.0523 18.5 17.5 18.5H16.5C15.9477 18.5 15.5 18.0523 15.5 17.5V16.5C15.5 15.9477 15.9477 15.5 16.5 15.5H17.5ZM15 13C15.5523 13 16 13.4477 16 14V15C16 15.5523 15.5523 16 15 16H14C13.4477 16 13 15.5523 13 15V14C13 13.4477 13.4477 13 14 13H15ZM20 13C20.5523 13 21 13.4477 21 14V15C21 15.5523 20.5523 16 20 16H19C18.4477 16 18 15.5523 18 15V14C18 13.4477 18.4477 13 19 13H20ZM10 3C10.5523 3 11 3.44772 11 4V10C11 10.5523 10.5523 11 10 11H4C3.44772 11 3 10.5523 3 10V4C3 3.44772 3.44772 3 4 3H10ZM20 3C20.5523 3 21 3.44772 21 4V10C21 10.5523 20.5523 11 20 11H14C13.4477 11 13 10.5523 13 10V4C13 3.44772 13.4477 3 14 3H20ZM15 9H19V5H15V9ZM5 9H9V5H5V9Z" fill="#B8B8B8"/>
</svg>
