<svg width="24" height="24" viewBox="0 0 24 24" fill="none" xmlns="http://www.w3.org/2000/svg">
<path d="M14 12C14 13.1046 13.1046 14 12 14C10.8954 14 10 13.1046 10 12C10 10.8954 10.8954 10 12 10C13.1046 10 14 10.8954 14 12Z" fill="#B8B8B8"/>
<path d="M2 12.0003C2 9.34821 3.05344 6.80437 4.92871 4.92902C5.31919 4.53854 5.95224 4.53864 6.34277 4.92902C6.7333 5.31954 6.7333 5.95256 6.34277 6.34308C4.84258 7.84336 4 9.87865 4 12.0003C4.00008 14.1218 4.84277 16.1564 6.34277 17.6566C6.73328 18.0471 6.73325 18.6801 6.34277 19.0706C5.95225 19.4611 5.31924 19.4611 4.92871 19.0706C3.05363 17.1954 2.00008 14.6522 2 12.0003Z" fill="#B8B8B8"/>
<path d="M6 11.9996C6.00005 11.2118 6.15555 10.4316 6.45703 9.70372C6.75856 8.97587 7.20073 8.31451 7.75781 7.75743C8.14835 7.36709 8.78141 7.36697 9.17188 7.75743C9.56215 8.14791 9.56215 8.78101 9.17188 9.17149C8.80044 9.54293 8.50571 9.98404 8.30469 10.4693C8.10372 10.9545 8.00005 11.4745 8 11.9996C8 12.5249 8.10367 13.0456 8.30469 13.5309C8.5057 14.0161 8.80049 14.4573 9.17188 14.8287C9.56207 15.2192 9.56222 15.8523 9.17188 16.2428C8.78145 16.6332 8.14836 16.633 7.75781 16.2428C7.20078 15.6857 6.75856 15.0243 6.45703 14.2965C6.1555 13.5685 6 12.7875 6 11.9996Z" fill="#B8B8B8"/>
<path d="M22 12.0003C22 9.34822 20.9466 6.80437 19.0713 4.92902C18.6808 4.53854 18.0478 4.53864 17.6572 4.92902C17.2667 5.31955 17.2667 5.95256 17.6572 6.34308C19.1574 7.84336 20 9.87865 20 12.0003C19.9999 14.1218 19.1572 16.1564 17.6572 17.6566C17.2667 18.0471 17.2667 18.6801 17.6572 19.0706C18.0478 19.4611 18.6808 19.4611 19.0713 19.0706C20.9464 17.1954 21.9999 14.6522 22 12.0003Z" fill="#B8B8B8"/>
<path d="M17.9999 11.9996C17.9998 11.2118 17.8443 10.4316 17.5428 9.70372C17.2413 8.97587 16.7992 8.31451 16.2421 7.75743C15.8515 7.36709 15.2185 7.36697 14.828 7.75743C14.4377 8.14791 14.4377 8.78101 14.828 9.17149C15.1994 9.54293 15.4942 9.98404 15.6952 10.4693C15.8962 10.9545 15.9998 11.4745 15.9999 11.9996C15.9999 12.5249 15.8962 13.0456 15.6952 13.5309C15.4942 14.0161 15.1994 14.4573 14.828 14.8287C14.4378 15.2192 14.4377 15.8523 14.828 16.2428C15.2184 16.6332 15.8515 16.633 16.2421 16.2428C16.7991 15.6857 17.2413 15.0243 17.5428 14.2965C17.8444 13.5685 17.9999 12.7875 17.9999 11.9996Z" fill="#B8B8B8"/>
</svg>
