<svg width="24" height="24" viewBox="0 0 24 24" fill="none" xmlns="http://www.w3.org/2000/svg">
<path d="M11.4453 4.16798C11.7521 3.96345 12.1466 3.94427 12.4717 4.11817C12.7968 4.29219 13 4.63121 13 5.00001V19C13 19.3688 12.7968 19.7078 12.4717 19.8818C12.1466 20.0557 11.7521 20.0366 11.4453 19.832L5.69727 16H3C2.44772 16 2 15.5523 2 15V9.00001C2 8.44772 2.44772 8.00001 3 8.00001H5.69727L11.4453 4.16798ZM6.55469 9.83204C6.39042 9.94155 6.19742 10 6 10H4V14H6C6.19742 14 6.39042 14.0585 6.55469 14.168L11 17.1309V6.86817L6.55469 9.83204Z" fill="#B8B8B8"/>
</svg>
