<svg width="24" height="24" viewBox="0 0 24 24" fill="none" xmlns="http://www.w3.org/2000/svg">
<path d="M11.4453 4.16798C11.7521 3.96345 12.1466 3.94427 12.4717 4.11817C12.7968 4.29219 13 4.63121 13 5.00001V19C13 19.3688 12.7968 19.7078 12.4717 19.8818C12.1466 20.0557 11.7521 20.0366 11.4453 19.832L5.69727 16H3C2.44772 16 2 15.5523 2 15V9.00001C2 8.44772 2.44772 8.00001 3 8.00001H5.69727L11.4453 4.16798ZM6.55469 9.83204C6.39042 9.94155 6.19742 10 6 10H4V14H6L6.14648 14.0107C6.29189 14.0323 6.43138 14.0858 6.55469 14.168L11 17.1309V6.86817L6.55469 9.83204Z" fill="#B8B8B8"/>
<path d="M19.793 8.79297C20.1835 8.40245 20.8166 8.40245 21.2071 8.79297C21.5976 9.18349 21.5976 9.81651 21.2071 10.207L19.4141 12L21.2071 13.793C21.5976 14.1835 21.5976 14.8165 21.2071 15.207C20.8166 15.5976 20.1835 15.5976 19.793 15.207L18 13.4141L16.2071 15.207C15.8166 15.5976 15.1835 15.5976 14.793 15.207C14.4025 14.8165 14.4025 14.1835 14.793 13.793L16.586 12L14.793 10.207C14.4025 9.81651 14.4025 9.18349 14.793 8.79297C15.1835 8.40245 15.8166 8.40245 16.2071 8.79297L18 10.5859L19.793 8.79297Z" fill="#B8B8B8"/>
</svg>
