<svg width="24" height="24" viewBox="0 0 24 24" fill="none" xmlns="http://www.w3.org/2000/svg">
<path d="M4 12C4.00002 10.8197 4.26143 9.64463 4.77637 8.5625C5.607 6.817 7.04124 5.43083 8.81445 4.66113C10.5878 3.89144 12.5805 3.7906 14.4229 4.37598C15.3671 4.67605 16.2396 5.1602 17 5.7793V5C17 4.44772 17.4477 4 18 4C18.5523 4 19 4.44772 19 5V8.42676C18.9999 8.97899 18.5522 9.42676 18 9.42676H14.5C13.9478 9.42676 13.5001 8.97899 13.5 8.42676C13.5 7.87447 13.9477 7.42676 14.5 7.42676H15.8506C15.2505 6.91406 14.5582 6.51694 13.8164 6.28125C12.4348 5.84244 10.9411 5.91899 9.61133 6.49609C8.28134 7.07337 7.20501 8.11268 6.58203 9.42188C6.19585 10.2334 6.00002 11.1147 6 12C5.99999 12.5523 5.55228 13 5 13C4.44772 13 3.99999 12.5523 4 12Z" fill="#B8B8B8"/>
<path d="M20 12C20 13.1803 19.7386 14.3554 19.2236 15.4375C18.393 17.183 16.9588 18.5692 15.1855 19.3389C13.4122 20.1086 11.4195 20.2094 9.57715 19.624C8.63291 19.324 7.76037 18.8398 7 18.2207V19C7 19.5523 6.55228 20 6 20C5.44772 20 5 19.5523 5 19V15.5733C5.00006 15.021 5.44775 14.5733 6 14.5733H9.5C10.0522 14.5733 10.4999 15.021 10.5 15.5733C10.5 16.1255 10.0523 16.5733 9.5 16.5733H8.14941C8.74953 17.086 9.44178 17.4831 10.1836 17.7188C11.5652 18.1576 13.0589 18.081 14.3887 17.5039C15.7187 16.9266 16.795 15.8873 17.418 14.5781C17.8041 13.7666 18 12.8853 18 12C18 11.4477 18.4477 11 19 11C19.5523 11 20 11.4477 20 12Z" fill="#B8B8B8"/>
</svg>
