<svg width="24" height="24" viewBox="0 0 24 24" fill="none" xmlns="http://www.w3.org/2000/svg">
<path d="M6 11V19H18V11H6ZM20 19C20 20.1046 19.1046 21 18 21H6C4.89543 21 4 20.1046 4 19V11C4 9.94674 4.81433 9.08572 5.84766 9.00781L5.84277 8.96777C5.31744 5.2902 8.17083 2 11.8857 2C13.5047 2.00003 15.0573 2.64329 16.2021 3.78809L16.707 4.29297C17.0976 4.68349 17.0976 5.31651 16.707 5.70703C16.3165 6.09756 15.6835 6.09756 15.293 5.70703L14.7881 5.20215C14.0184 4.43242 12.9743 4.00003 11.8857 4C9.38806 4 7.46933 6.21203 7.82227 8.68457L7.86719 9H18C19.1046 9 20 9.89543 20 11V19Z" fill="#B8B8B8"/>
</svg>
