<svg width="24" height="24" viewBox="0 0 24 24" fill="none" xmlns="http://www.w3.org/2000/svg">
<path d="M10.0148 18C10.0148 16.8954 10.9102 16 12.0148 16C13.1193 16 14.0148 16.8954 14.0148 18C14.0148 19.1046 13.1193 20 12.0148 20C10.9102 20 10.0148 19.1046 10.0148 18ZM12.0148 12C12.8027 12 13.5828 12.1555 14.3107 12.457C15.0386 12.7586 15.6998 13.2007 16.257 13.7578C16.6475 14.1483 16.6475 14.7814 16.257 15.1719C15.8665 15.5621 15.2333 15.5622 14.8429 15.1719C14.4715 14.8004 14.0304 14.5057 13.5451 14.3047C13.0599 14.1037 12.54 14 12.0148 14C11.4895 14 10.9689 14.1037 10.4835 14.3047C9.99844 14.5057 9.55799 14.8006 9.18667 15.1719C8.79615 15.5624 8.16216 15.5624 7.77164 15.1719C7.38131 14.7815 7.38156 14.1484 7.77164 13.7578C8.32879 13.2007 8.99095 12.7586 9.7189 12.457C10.4468 12.1555 11.2269 12 12.0148 12ZM12.0148 8C13.328 8.00002 14.6287 8.25822 15.8419 8.76074C17.0551 9.26329 18.1576 10.0002 19.0861 10.9287C19.4764 11.3191 19.4762 11.9522 19.0861 12.3428C18.6956 12.7333 18.0616 12.7333 17.671 12.3428C16.9284 11.6002 16.0466 11.0113 15.0763 10.6094C14.1058 10.2074 13.0653 10 12.0148 10C10.9642 10 9.92388 10.2073 8.95328 10.6094C7.98273 11.0114 7.10041 11.6 6.35757 12.3428C5.96705 12.7333 5.33403 12.7333 4.94351 12.3428C4.5532 11.9522 4.55306 11.3192 4.94351 10.9287C5.87208 10.0002 6.97443 9.26327 8.18765 8.76074C9.40089 8.25821 10.7016 8 12.0148 8ZM12.0148 4C13.7219 4.00001 15.4123 4.33603 16.9894 4.98926C18.5666 5.64257 20 6.60045 21.2072 7.80762C21.5976 8.19811 21.5976 8.83116 21.2072 9.22168C20.8167 9.61219 20.1836 9.61217 19.7931 9.22168C18.7717 8.20023 17.5584 7.38972 16.2238 6.83691C14.8894 6.28427 13.4591 6.00001 12.0148 6C10.5703 6 9.13942 6.28411 7.80484 6.83691C6.47034 7.38971 5.25787 8.2003 4.23648 9.22168C3.84595 9.6122 3.21294 9.6122 2.82242 9.22168C2.43193 8.83115 2.4319 8.19813 2.82242 7.80762C4.02957 6.60047 5.46297 5.64256 7.04019 4.98926C8.61731 4.33606 10.3078 4 12.0148 4Z" fill="#B8B8B8"/>
<path d="M10.0148 18C10.0148 16.8954 10.9102 16 12.0148 16C13.1193 16 14.0148 16.8954 14.0148 18C14.0148 19.1046 13.1193 20 12.0148 20C10.9102 20 10.0148 19.1046 10.0148 18ZM12.0148 12C12.8027 12 13.5828 12.1555 14.3107 12.457C15.0386 12.7586 15.6998 13.2007 16.257 13.7578C16.6475 14.1483 16.6475 14.7814 16.257 15.1719C15.8665 15.5621 15.2333 15.5622 14.8429 15.1719C14.4715 14.8004 14.0304 14.5057 13.5451 14.3047C13.0599 14.1037 12.54 14 12.0148 14C11.4895 14 10.9689 14.1037 10.4835 14.3047C9.99844 14.5057 9.55799 14.8006 9.18667 15.1719C8.79615 15.5624 8.16216 15.5624 7.77164 15.1719C7.38131 14.7815 7.38156 14.1484 7.77164 13.7578C8.32879 13.2007 8.99095 12.7586 9.7189 12.457C10.4468 12.1555 11.2269 12 12.0148 12ZM12.0148 8C13.328 8.00002 14.6287 8.25822 15.8419 8.76074C17.0551 9.26329 18.1576 10.0002 19.0861 10.9287C19.4764 11.3191 19.4762 11.9522 19.0861 12.3428C18.6956 12.7333 18.0616 12.7333 17.671 12.3428C16.9284 11.6002 16.0466 11.0113 15.0763 10.6094C14.1058 10.2074 13.0653 10 12.0148 10C10.9642 10 9.92388 10.2073 8.95328 10.6094C7.98273 11.0114 7.10041 11.6 6.35757 12.3428C5.96705 12.7333 5.33403 12.7333 4.94351 12.3428C4.5532 11.9522 4.55306 11.3192 4.94351 10.9287C5.87208 10.0002 6.97443 9.26327 8.18765 8.76074C9.40089 8.25821 10.7016 8 12.0148 8ZM12.0148 4C13.7219 4.00001 15.4123 4.33603 16.9894 4.98926C18.5666 5.64257 20 6.60045 21.2072 7.80762C21.5976 8.19811 21.5976 8.83116 21.2072 9.22168C20.8167 9.61219 20.1836 9.61217 19.7931 9.22168C18.7717 8.20023 17.5584 7.38972 16.2238 6.83691C14.8894 6.28427 13.4591 6.00001 12.0148 6C10.5703 6 9.13942 6.28411 7.80484 6.83691C6.47034 7.38971 5.25787 8.2003 4.23648 9.22168C3.84595 9.6122 3.21294 9.6122 2.82242 9.22168C2.43193 8.83115 2.4319 8.19813 2.82242 7.80762C4.02957 6.60047 5.46297 5.64256 7.04019 4.98926C8.61731 4.33606 10.3078 4 12.0148 4Z" fill="#B8B8B8"/>
</svg>
