<svg width="24" height="24" viewBox="0 0 24 24" fill="none" xmlns="http://www.w3.org/2000/svg">
<path d="M14 18V13H10V18C10 18.5523 9.55228 19 9 19C8.44772 19 8 18.5523 8 18V6C8 5.44772 8.44772 5 9 5C9.55228 5 10 5.44772 10 6V11H14V6C14 5.44772 14.4477 5 15 5C15.5523 5 16 5.44772 16 6V18C16 18.5523 15.5523 19 15 19C14.4477 19 14 18.5523 14 18ZM5 16V8C5 7.44772 5.44772 7 6 7C6.55228 7 7 7.44772 7 8V16C7 16.5523 6.55228 17 6 17C5.44772 17 5 16.5523 5 16ZM17 16V8C17 7.44772 17.4477 7 18 7C18.5523 7 19 7.44772 19 8V16C19 16.5523 18.5523 17 18 17C17.4477 17 17 16.5523 17 16ZM2 12.5V11.5C2 10.9477 2.44772 10.5 3 10.5C3.55228 10.5 4 10.9477 4 11.5V12.5C4 13.0523 3.55228 13.5 3 13.5C2.44772 13.5 2 13.0523 2 12.5ZM20 12.5V11.5C20 10.9477 20.4477 10.5 21 10.5C21.5523 10.5 22 10.9477 22 11.5V12.5C22 13.0523 21.5523 13.5 21 13.5C20.4477 13.5 20 13.0523 20 12.5Z" fill="#B8B8B8"/>
</svg>
