<svg width="24" height="24" viewBox="0 0 24 24" fill="none" xmlns="http://www.w3.org/2000/svg">
<path d="M13.7929 18.293C14.1834 17.9024 14.8165 17.9024 15.207 18.293C15.5975 18.6835 15.5975 19.3165 15.207 19.707C14.3792 20.5348 13.2565 21 12.0859 21H11.914C10.7433 21 9.62071 20.5348 8.79291 19.707C8.40239 19.3165 8.40239 18.6835 8.79291 18.293C9.18344 17.9025 9.81645 17.9024 10.207 18.293C10.6597 18.7457 11.2738 19 11.914 19H12.0859C12.7261 19 13.3402 18.7457 13.7929 18.293ZM6.99994 12.9971C6.99987 13.2329 6.91744 13.4614 6.76655 13.6426L5.63471 15H18.3652L17.2343 13.6426C17.0833 13.4614 17 13.233 16.9999 12.9971V10C16.9999 7.23858 14.7614 5 11.9999 5C9.23854 5.00002 6.99994 7.23859 6.99994 10V12.9971ZM18.9999 12.6377L19.9013 13.7197C20.9868 15.0223 20.0607 16.9998 18.3652 17H5.63471C3.93924 16.9998 3.01316 15.0223 4.09858 13.7197L4.99994 12.6377V10C4.99994 6.13402 8.13397 3.00002 11.9999 3C15.8659 3 18.9999 6.13401 18.9999 10V12.6377Z" fill="#B8B8B8"/>
</svg>
