<svg width="24" height="24" viewBox="0 0 24 24" fill="none" xmlns="http://www.w3.org/2000/svg">
<path d="M12 16C12.5523 16 13 16.4477 13 17C13 17.5523 12.5523 18 12 18C11.4477 18 11 17.5523 11 17C11 16.4477 11.4477 16 12 16ZM12 11C12.5523 11 13 11.4477 13 12C13 12.5523 12.5523 13 12 13C11.4477 13 11 12.5523 11 12C11 11.4477 11.4477 11 12 11ZM12 6C12.5523 6 13 6.44772 13 7C13 7.55228 12.5523 8 12 8C11.4477 8 11 7.55228 11 7C11 6.44772 11.4477 6 12 6Z" fill="#B8B8B8"/>
<path d="M17 16C17.5523 16 18 16.4477 18 17C18 17.5523 17.5523 18 17 18C16.4477 18 16 17.5523 16 17C16 16.4477 16.4477 16 17 16ZM17 11C17.5523 11 18 11.4477 18 12C18 12.5523 17.5523 13 17 13C16.4477 13 16 12.5523 16 12C16 11.4477 16.4477 11 17 11ZM17 6C17.5523 6 18 6.44772 18 7C18 7.55228 17.5523 8 17 8C16.4477 8 16 7.55228 16 7C16 6.44772 16.4477 6 17 6Z" fill="#B8B8B8"/>
<path d="M7 16C7.55228 16 8 16.4477 8 17C8 17.5523 7.55228 18 7 18C6.44772 18 6 17.5523 6 17C6 16.4477 6.44772 16 7 16ZM7 11C7.55228 11 8 11.4477 8 12C8 12.5523 7.55228 13 7 13C6.44772 13 6 12.5523 6 12C6 11.4477 6.44772 11 7 11ZM7 6C7.55228 6 8 6.44772 8 7C8 7.55228 7.55228 8 7 8C6.44772 8 6 7.55228 6 7C6 6.44772 6.44772 6 7 6Z" fill="#B8B8B8"/>
</svg>
