<svg width="24" height="24" viewBox="0 0 24 24" fill="none" xmlns="http://www.w3.org/2000/svg">
<path d="M11.5527 2.10548C11.8914 1.93612 12.2966 1.97305 12.5996 2.20021L18.5996 6.70021C18.8514 6.88906 19 7.18526 19 7.50001C19 7.81477 18.8514 8.11096 18.5996 8.29982L13.666 12L18.5996 15.7002C18.8514 15.8891 19 16.1853 19 16.5C19 16.8148 18.8514 17.111 18.5996 17.2998L12.5996 21.7998C12.2966 22.027 11.8914 22.0639 11.5527 21.8945C11.2139 21.7252 11 21.3788 11 21V13.999L6.59957 17.2998C6.15775 17.6311 5.53149 17.5414 5.20016 17.0996C4.86892 16.6578 4.95858 16.0315 5.40035 15.7002L10.3339 12L5.40035 8.29982C4.95858 7.96849 4.86892 7.34222 5.20016 6.9004C5.53149 6.45863 6.15775 6.36898 6.59957 6.70021L11 10V3.00001C11 2.62124 11.2139 2.27487 11.5527 2.10548ZM13 19L16.3339 16.5L13 13.999V19ZM13 10L16.3339 7.50001L13 4.99904V10Z" fill="#B8B8B8"/>
</svg>
