<svg width="24" height="24" viewBox="0 0 24 24" fill="none" xmlns="http://www.w3.org/2000/svg">
<path d="M4 5V11.376L6.90039 9.2002C7.27534 8.9191 7.79458 8.93623 8.15039 9.24121L11.0303 11.71L19.3857 5.21094C19.6872 4.97645 20.0964 4.93376 20.4395 5.10156C20.7825 5.26937 21 5.61808 21 6V18C21.5523 18 22 18.4477 22 19C22 19.5523 21.5523 20 21 20H3C2.44772 20 2 19.5523 2 19V5C2 4.44772 2.44772 4 3 4C3.55228 4 4 4.44772 4 5ZM19 8.04492L11.6143 13.7891L11.542 13.8408C11.1735 14.0787 10.6879 14.0487 10.3496 13.7588L7.45898 11.2812L4 13.875V18H19V8.04492Z" fill="#B8B8B8"/>
</svg>
