<svg width="24" height="24" viewBox="0 0 24 24" fill="none" xmlns="http://www.w3.org/2000/svg">
<path d="M20 12C20 7.58172 16.4183 4 12 4C7.58172 4 4 7.58172 4 12C4 16.4183 7.58172 20 12 20V22C6.47715 22 2 17.5228 2 12C2 6.47715 6.47715 2 12 2C17.5228 2 22 6.47715 22 12C22 17.5228 17.5228 22 12 22V20C16.4183 20 20 16.4183 20 12Z" fill="#B8B8B8"/>
<path d="M14.293 8.29297C14.6835 7.90245 15.3166 7.90245 15.7071 8.29297C16.0976 8.68349 16.0976 9.31651 15.7071 9.70703L13.4141 12L15.7071 14.293C16.0976 14.6835 16.0976 15.3165 15.7071 15.707C15.3166 16.0976 14.6835 16.0976 14.293 15.707L12 13.4141L9.70708 15.707C9.31655 16.0976 8.68354 16.0976 8.29302 15.707C7.90249 15.3165 7.90249 14.6835 8.29302 14.293L10.586 12L8.29302 9.70703C7.90249 9.31651 7.90249 8.68349 8.29302 8.29297C8.68354 7.90245 9.31655 7.90245 9.70708 8.29297L12 10.5859L14.293 8.29297Z" fill="#B8B8B8"/>
</svg>
