<svg width="24" height="24" viewBox="0 0 24 24" fill="none" xmlns="http://www.w3.org/2000/svg">
<path d="M9.52832 7.11817C9.85344 6.94427 10.2479 6.96345 10.5547 7.16798L16.5547 11.168C16.8329 11.3534 17 11.6657 17 12C17 12.3344 16.8329 12.6466 16.5547 12.832L10.5547 16.832C10.2479 17.0366 9.85344 17.0557 9.52832 16.8818C9.20316 16.7078 9 16.3688 9 16V8.00001C9 7.63121 9.20316 7.29219 9.52832 7.11817ZM11 14.1309L14.1973 12L11 9.86817V14.1309Z" fill="#B8B8B8"/>
<path d="M20 12C20 7.58172 16.4183 4 12 4C7.58172 4 4 7.58172 4 12C4 16.4183 7.58172 20 12 20V22C6.47715 22 2 17.5228 2 12C2 6.47715 6.47715 2 12 2C17.5228 2 22 6.47715 22 12C22 17.5228 17.5228 22 12 22V20C16.4183 20 20 16.4183 20 12Z" fill="#B8B8B8"/>
</svg>
