<svg width="24" height="24" viewBox="0 0 24 24" fill="none" xmlns="http://www.w3.org/2000/svg">
<path d="M13.5772 5.61523C13.7897 5.10558 14.3751 4.86476 14.8848 5.07715C15.3945 5.28964 15.6353 5.87503 15.4229 6.38477L10.4229 18.3848C10.2104 18.8944 9.62501 19.1352 9.11528 18.9229C8.60562 18.7104 8.3648 18.125 8.57719 17.6152L13.5772 5.61523ZM6.29301 7.29297C6.68354 6.90244 7.31655 6.90244 7.70708 7.29297C8.0976 7.68349 8.0976 8.31651 7.70708 8.70703L4.41411 12L7.70708 15.293C8.0976 15.6835 8.0976 16.3165 7.70708 16.707C7.31655 17.0975 6.68354 17.0975 6.29301 16.707L2.29301 12.707C1.90249 12.3165 1.90249 11.6835 2.29301 11.293L6.29301 7.29297ZM16.293 7.29297C16.6835 6.90244 17.3166 6.90244 17.7071 7.29297L21.7071 11.293C22.0976 11.6835 22.0976 12.3165 21.7071 12.707L17.7071 16.707C17.3166 17.0975 16.6835 17.0975 16.293 16.707C15.9025 16.3165 15.9025 15.6835 16.293 15.293L19.586 12L16.293 8.70703C15.9025 8.31651 15.9025 7.68349 16.293 7.29297Z" fill="#B8B8B8"/>
</svg>
