<svg width="24" height="24" viewBox="0 0 24 24" fill="none" xmlns="http://www.w3.org/2000/svg">
<path d="M15 11.5H5V15C5 17.2091 6.79086 19 9 19H11C13.2091 19 15 17.2091 15 15V11.5ZM10.6055 3.55274C10.8525 3.05876 11.4533 2.85849 11.9473 3.10548C12.4412 3.35247 12.6415 3.95329 12.3945 4.44727C12.2944 4.64747 12.2474 4.78494 12.2266 4.87305C12.2076 4.95347 12.2114 4.98817 12.2119 4.99219C12.2122 4.99437 12.2124 4.99561 12.2129 4.99708C12.2135 4.999 12.2153 5.00564 12.2217 5.01856C12.2387 5.05322 12.264 5.09325 12.332 5.19532C12.4489 5.37065 12.7117 5.74106 12.7744 6.27344C12.8371 6.80616 12.6914 7.35357 12.3945 7.94727C12.1475 8.44125 11.5467 8.64153 11.0527 8.39454C10.5588 8.14755 10.3585 7.54672 10.6055 7.05274C10.7056 6.85255 10.7526 6.71507 10.7734 6.62696C10.7924 6.54654 10.7886 6.51185 10.7881 6.50782C10.7878 6.50565 10.7876 6.50441 10.7871 6.50294C10.7865 6.50102 10.7847 6.49438 10.7783 6.48145C10.7613 6.44679 10.736 6.40676 10.668 6.30469C10.5511 6.12937 10.2883 5.75895 10.2256 5.22657C10.1629 4.69385 10.3086 4.14645 10.6055 3.55274ZM6.60742 3.54884C6.85661 3.05602 7.45833 2.85831 7.95117 3.10743C8.44399 3.35662 8.64169 3.95834 8.39258 4.45118C8.18553 4.86065 8.2006 5.00833 8.20117 5.01368C8.20127 5.01462 8.20118 5.01867 8.21094 5.03907C8.22643 5.07136 8.24989 5.1111 8.31543 5.20997C8.42746 5.37897 8.68993 5.74727 8.75781 6.27247C8.82624 6.80265 8.68866 7.34816 8.39844 7.94044C8.15537 8.43628 7.55547 8.64144 7.05957 8.39844C6.56373 8.15538 6.35856 7.55547 6.60156 7.05958C6.69802 6.86272 6.74252 6.72886 6.76172 6.64356C6.77995 6.56259 6.7746 6.52979 6.77441 6.52833C6.77443 6.5262 6.78331 6.51792 6.64844 6.31446C6.52739 6.13187 6.26832 5.75955 6.21191 5.22266C6.15601 4.69028 6.30681 4.14338 6.60742 3.54884ZM17.25 15C18.2165 15 19 14.2165 19 13.25C19 12.2835 18.2165 11.5 17.25 11.5H17V15H17.25ZM21 13.25C21 15.3211 19.3211 17 17.25 17H16.6572C15.8334 19.3302 13.6123 21 11 21H9C5.68629 21 3 18.3137 3 15V10.501C3 9.94774 3.4486 9.50001 4.00098 9.50001H17.25C19.3211 9.50001 21 11.1789 21 13.25Z" fill="#B8B8B8"/>
</svg>
