<svg width="24" height="24" viewBox="0 0 24 24" fill="none" xmlns="http://www.w3.org/2000/svg">
<path d="M5 8V19H16V8H5ZM18 19C18 20.1046 17.1046 21 16 21H5C3.89543 21 3 20.1046 3 19V8C3 6.89543 3.89543 6 5 6H16C17.1046 6 18 6.89543 18 8V19Z" fill="#B8B8B8"/>
<path d="M19 17V6C19 5.48232 18.6067 5.05621 18.1025 5.00488L18 5H7C6.44772 5 6 4.55228 6 4C6 3.44772 6.44772 3 7 3H18L18.1543 3.00391C19.7394 3.08421 21 4.39489 21 6V17C21 17.5523 20.5523 18 20 18C19.4477 18 19 17.5523 19 17Z" fill="#B8B8B8"/>
</svg>
