<svg width="24" height="24" viewBox="0 0 24 24" fill="none" xmlns="http://www.w3.org/2000/svg">
<path d="M14 17C14.5523 17 15 17.4477 15 18C15 18.5523 14.5523 19 14 19H3C2.44772 19 2 18.5523 2 18C2 17.4477 2.44772 17 3 17H14ZM14 11C14.5523 11 15 11.4477 15 12C15 12.5523 14.5523 13 14 13H3C2.44772 13 2 12.5523 2 12C2 11.4477 2.44772 11 3 11H14ZM14 5C14.5523 5 15 5.44772 15 6C15 6.55228 14.5523 7 14 7H3C2.44772 7 2 6.55228 2 6C2 5.44772 2.44772 5 3 5H14Z" fill="#B8B8B8"/>
<path d="M17 19C17 19.5523 17.4477 20 18 20C18.5523 20 19 19.5523 19 19V7.41406L20.293 8.70703C20.6835 9.09756 21.3165 9.09756 21.707 8.70703C22.0976 8.31651 22.0976 7.68349 21.707 7.29297L18.707 4.29297C18.421 4.00697 17.9909 3.92139 17.6172 4.07617C17.2436 4.23098 17 4.59558 17 5V19Z" fill="#B8B8B8"/>
</svg>
