<svg width="24" height="24" viewBox="0 0 24 24" fill="none" xmlns="http://www.w3.org/2000/svg">
<path d="M6 5V19H18V5H6ZM15.9375 15C16.4898 15 16.9375 15.4477 16.9375 16C16.9375 16.5523 16.4898 17 15.9375 17H8.0625C7.51022 17 7.0625 16.5523 7.0625 16C7.0625 15.4477 7.51022 15 8.0625 15H15.9375ZM15.9375 11C16.4898 11 16.9375 11.4477 16.9375 12C16.9375 12.5523 16.4898 13 15.9375 13H8.0625C7.51022 13 7.0625 12.5523 7.0625 12C7.0625 11.4477 7.51022 11 8.0625 11H15.9375ZM15.9375 7C16.4898 7 16.9375 7.44772 16.9375 8C16.9375 8.55228 16.4898 9 15.9375 9H8.0625C7.51022 9 7.0625 8.55228 7.0625 8C7.0625 7.44772 7.51022 7 8.0625 7H15.9375ZM20 19C20 20.1046 19.1046 21 18 21H6C4.89543 21 4 20.1046 4 19V5C4 3.89543 4.89543 3 6 3H18C19.1046 3 20 3.89543 20 5V19Z" fill="#B8B8B8"/>
</svg>
