<svg width="24" height="24" viewBox="0 0 24 24" fill="none" xmlns="http://www.w3.org/2000/svg">
<path d="M4 19V15C4 14.4477 4.44772 14 5 14C5.55228 14 6 14.4477 6 15V19H18V15C18 14.4477 18.4477 14 19 14C19.5523 14 20 14.4477 20 15V19C20 20.1046 19.1046 21 18 21H6C4.89543 21 4 20.1046 4 19ZM11 4C11 3.44772 11.4477 3 12 3C12.5523 3 13 3.44772 13 4V12.5859L15.293 10.293C15.6835 9.90244 16.3165 9.90245 16.707 10.293C17.0976 10.6835 17.0976 11.3165 16.707 11.707L12.707 15.707C12.5195 15.8946 12.2652 16 12 16C11.7348 16 11.4805 15.8946 11.293 15.707L7.29297 11.707C6.90244 11.3165 6.90245 10.6835 7.29297 10.293C7.68349 9.90244 8.31651 9.90245 8.70703 10.293L11 12.5859V4Z" fill="#B8B8B8"/>
</svg>
