<svg width="24" height="24" viewBox="0 0 24 24" fill="none" xmlns="http://www.w3.org/2000/svg">
<path d="M6 19H11V17H6V19ZM6 15H11V14H6V15ZM8 9C7.99992 9.37893 7.78582 9.72516 7.44727 9.89453C6.63133 10.3025 6.09274 11.1025 6.01172 12H10.9883C10.9073 11.1025 10.3687 10.3025 9.55273 9.89453C9.2142 9.72517 9.00008 9.37896 9 9V5H8V9ZM11 8.43164C12.2409 9.28515 13 10.7033 13 12.2363V19.9004C12.9998 20.5076 12.5076 20.9998 11.9004 21H5.09961C4.4924 20.9998 4.00021 20.5076 4 19.9004V12.2363L4.01172 11.9102C4.11087 10.5037 4.84752 9.22435 6 8.43164V4.09961C6.00021 3.4924 6.49241 3.00021 7.09961 3H9.90039C10.5076 3.00021 10.9998 3.49241 11 4.09961V8.43164Z" fill="#B8B8B8"/>
<path d="M18 17H16V18C16 18.5523 16.4477 19 17 19C17.5523 19 18 18.5523 18 18V17ZM20 18C20 19.6569 18.6569 21 17 21C15.3431 21 14 19.6569 14 18V16C14.0002 15.4482 14.4475 15.0002 15 15H19C19.5518 15.0002 19.9998 15.4475 20 16V18Z" fill="#B8B8B8"/>
</svg>
