<svg width="24" height="24" viewBox="0 0 24 24" fill="none" xmlns="http://www.w3.org/2000/svg">
<path d="M4 18V6C4 4.89543 4.89543 4 6 4H12.5C13.0523 4 13.5 4.44772 13.5 5C13.5 5.55228 13.0523 6 12.5 6H6V18H17V12.5381C17.0002 11.986 17.4478 11.5381 18 11.5381C18.5522 11.5381 18.9998 11.986 19 12.5381V18C19 19.1046 18.1046 20 17 20H6C4.89543 20 4 19.1046 4 18Z" fill="#B8B8B8"/>
<path d="M16.5859 3.99999C17.3669 3.21904 18.633 3.21904 19.414 3.99999L20 4.58592C20.7809 5.36696 20.7809 6.63302 20 7.41405L12.8222 14.5928C12.6702 14.7448 12.494 14.8707 12.3017 14.9668L9.78902 16.2236C8.49968 16.8683 7.13166 15.5003 7.77632 14.2109L9.03316 11.6982C9.12929 11.506 9.25518 11.3297 9.40718 11.1777L16.5859 3.99999ZM10.8222 12.5928L10.2363 13.7627L11.4072 13.1777L16.5849 7.99901L16 7.41405L10.8222 12.5928ZM17.414 5.99999L18 6.58592L18.5859 5.99999L18 5.41405L17.414 5.99999Z" fill="#B8B8B8"/>
</svg>
