<svg width="24" height="24" viewBox="0 0 24 24" fill="none" xmlns="http://www.w3.org/2000/svg">
<path d="M4.66113 8.81445C3.89144 10.5878 3.7906 12.5805 4.37598 14.4229C4.67605 15.3671 5.1602 16.2396 5.7793 17H5C4.44772 17 4 17.4477 4 18C4 18.5523 4.44772 19 5 19H8.42676C8.97899 18.9999 9.42676 18.5522 9.42676 18V14.5C9.42676 13.9478 8.97899 13.5001 8.42676 13.5C7.87447 13.5 7.42676 13.9477 7.42676 14.5V15.8506C6.91406 15.2505 6.51694 14.5582 6.28125 13.8164C5.84244 12.4348 5.91899 10.9411 6.49609 9.61133C7.07336 8.28134 8.11268 7.20501 9.42188 6.58203C10.7311 5.95906 12.222 5.83174 13.6182 6.22266C15.0141 6.61365 16.2214 7.49689 17.0166 8.70898C17.8118 9.92116 18.1416 11.3802 17.9443 12.8164C17.747 14.2528 17.0361 15.5696 15.9434 16.5225C14.8507 17.4752 13.4498 18 12 18C11.4477 18 11 18.4477 11 19C11 19.5523 11.4477 20 12 20C13.9331 20 15.8008 19.2998 17.2578 18.0293C18.7147 16.7588 19.6627 15.0039 19.9258 13.0889C20.1888 11.1737 19.7489 9.22765 18.6885 7.61133C17.628 5.99519 16.0186 4.81711 14.1572 4.2959C12.2957 3.77467 10.3081 3.94572 8.5625 4.77637C6.817 5.607 5.43083 7.04123 4.66113 8.81445Z" fill="#B8B8B8"/>
<path d="M11 9C11 8.44772 11.4477 8 12 8C12.5523 8 13 8.44772 13 9V12.4648L14.0547 13.168C14.5142 13.4743 14.6384 14.0952 14.332 14.5547C14.0257 15.0142 13.4048 15.1384 12.9453 14.832L11.4453 13.832C11.1671 13.6466 11 13.3344 11 13V9Z" fill="#B8B8B8"/>
</svg>
