<svg width="24" height="24" viewBox="0 0 24 24" fill="none" xmlns="http://www.w3.org/2000/svg">
<path d="M7.2929 10.293C7.68343 9.90244 8.31644 9.90244 8.70697 10.293C9.09749 10.6835 9.09749 11.3165 8.70697 11.707L6.20697 14.207C5.21678 15.1972 5.21678 16.8028 6.20697 17.793C7.19715 18.7832 8.80271 18.7831 9.7929 17.793L12.2929 15.293C12.6834 14.9024 13.3164 14.9024 13.707 15.293C14.0975 15.6835 14.0975 16.3165 13.707 16.707L11.207 19.207C9.43573 20.9783 6.56414 20.9783 4.7929 19.207C3.02167 17.4358 3.02167 14.5642 4.7929 12.793L7.2929 10.293ZM13.2929 9.29296C13.6834 8.90244 14.3164 8.90244 14.707 9.29296C15.0975 9.68349 15.0975 10.3165 14.707 10.707L10.707 14.707C10.3164 15.0976 9.68343 15.0976 9.2929 14.707C8.90238 14.3165 8.90238 13.6835 9.2929 13.293L13.2929 9.29296ZM12.7929 4.79296C14.5641 3.02173 17.4357 3.02173 19.207 4.79296C20.9782 6.5642 20.9782 9.43579 19.207 11.207L16.707 13.707C16.3164 14.0975 15.6834 14.0975 15.2929 13.707C14.9024 13.3165 14.9024 12.6835 15.2929 12.293L17.7929 9.79296C18.7831 8.80278 18.7831 7.19721 17.7929 6.20703C16.8027 5.21684 15.1972 5.21684 14.207 6.20703L11.707 8.70703C11.3164 9.09755 10.6834 9.09755 10.2929 8.70703C9.90239 8.3165 9.90239 7.68349 10.2929 7.29296L12.7929 4.79296Z" fill="#B8B8B8"/>
</svg>
