<svg width="24" height="24" viewBox="0 0 24 24" fill="none" xmlns="http://www.w3.org/2000/svg">
<path d="M18 10C18 6.68629 15.3137 4 12 4C8.68629 4 6 6.68629 6 10C6 11.7242 6.63849 13.274 7.81348 14.9189C8.86298 16.3883 10.2954 17.8707 12 19.582C13.7046 17.8707 15.137 16.3883 16.1865 14.9189C17.3615 13.274 18 11.7242 18 10ZM20 10C20 12.2758 19.1385 14.226 17.8135 16.0811C16.5053 17.9124 14.6891 19.725 12.707 21.707C12.3165 22.0976 11.6835 22.0976 11.293 21.707C9.31091 19.725 7.49466 17.9124 6.18652 16.0811C4.86151 14.226 4 12.2758 4 10C4 5.58172 7.58172 2 12 2C16.4183 2 20 5.58172 20 10Z" fill="#B8B8B8"/>
<path d="M14 10C14 8.89543 13.1046 8 12 8C10.8954 8 10 8.89543 10 10C10 11.1046 10.8954 12 12 12C13.1046 12 14 11.1046 14 10ZM16 10C16 12.2091 14.2091 14 12 14C9.79086 14 8 12.2091 8 10C8 7.79086 9.79086 6 12 6C14.2091 6 16 7.79086 16 10Z" fill="#B8B8B8"/>
</svg>
