<svg width="24" height="24" viewBox="0 0 24 24" fill="none" xmlns="http://www.w3.org/2000/svg">
<path d="M20 17.4688L14.9326 13.2461L13.1094 14.4619C12.4376 14.9098 11.5624 14.9098 10.8906 14.4619L9.07324 13.251L4 17.5723V18H20V17.4688ZM4 14.9453L7.44727 12.0078L4 9.13574V14.9453ZM16.5625 12L20 14.8643V9.13574L16.5625 12ZM4 6V6.53027L9.60254 11.2002L12 12.7979L14.3965 11.2002L20 6.53027V6H4ZM22 18C22 19.1046 21.1046 20 20 20H4C2.89543 20 2 19.1046 2 18V6C2 4.89543 2.89543 4 4 4H20C21.1046 4 22 4.89543 22 6V18Z" fill="#B8B8B8"/>
</svg>
