<svg width="24" height="24" viewBox="0 0 24 24" fill="none" xmlns="http://www.w3.org/2000/svg">
<path d="M14.4999 20V19.0772C14.0892 19.0393 13.6805 18.9795 13.2773 18.8945L12.7578 19.7637C12.4742 20.2373 11.8605 20.3917 11.3867 20.1084C10.9127 19.8249 10.7584 19.2103 11.0419 18.7363L11.3193 18.2705C11.0452 18.1509 10.7763 18.0194 10.5146 17.874C10.0319 17.6058 9.85784 16.9974 10.1259 16.5146C10.3941 16.0319 11.0025 15.8579 11.4853 16.126C11.9823 16.4021 12.5184 16.6223 13.079 16.7852C13.856 17.0109 14.6765 17.125 15.4999 17.125C16.3234 17.125 17.1439 17.0109 17.9208 16.7852C18.4814 16.6223 19.0176 16.4021 19.5146 16.126C19.9973 15.8579 20.6058 16.0319 20.874 16.5146C21.142 16.9974 20.968 17.6058 20.4853 17.874C20.2233 18.0195 19.954 18.1508 19.6796 18.2705L19.9579 18.7363C20.2415 19.2103 20.0872 19.8249 19.6132 20.1084C19.1394 20.3917 18.5257 20.2373 18.2421 19.7637L17.7216 18.8945C17.3187 18.9794 16.9104 19.0393 16.4999 19.0772V20C16.4999 20.5523 16.0522 21 15.4999 21C14.9477 21 14.4999 20.5523 14.4999 20Z" fill="#B8B8B8"/>
<path d="M13 11C13 9.89543 12.1046 9 11 9C9.89543 9 9 9.89543 9 11C9 12.1046 9.89543 13 11 13C12.1046 13 13 12.1046 13 11ZM15 11C15 13.2091 13.2091 15 11 15C8.79086 15 7 13.2091 7 11C7 8.79086 8.79086 7 11 7C13.2091 7 15 8.79086 15 11Z" fill="#B8B8B8"/>
<path d="M12 4.00001V5.00001C12 5.5523 11.5523 6.00001 11 6.00001C10.4477 6.00001 10 5.5523 10 5.00001V4.00001C10 3.44773 10.4477 3.00001 11 3.00001C11.5523 3.00001 12 3.44773 12 4.00001ZM16.207 7.20705C15.8165 7.59757 15.1835 7.59757 14.793 7.20705C14.4024 6.81652 14.4024 6.18351 14.793 5.79298L15.293 5.29298C15.6835 4.90246 16.3165 4.90246 16.707 5.29298C17.0976 5.68351 17.0976 6.31652 16.707 6.70705L16.207 7.20705ZM7.20703 7.20705C6.81651 7.59757 6.18349 7.59757 5.79297 7.20705L5.29297 6.70705C4.90244 6.31652 4.90244 5.68351 5.29297 5.29298C5.68349 4.90246 6.31651 4.90246 6.70703 5.29298L7.20703 5.79298C7.59756 6.18351 7.59756 6.81652 7.20703 7.20705ZM17 12C16.4477 12 16 11.5523 16 11C16 10.4477 16.4477 10 17 10H18C18.5523 10 19 10.4477 19 11C19 11.5523 18.5523 12 18 12H17ZM4 12C3.44772 12 3 11.5523 3 11C3 10.4477 3.44772 10 4 10H5C5.55228 10 6 10.4477 6 11C6 11.5523 5.55228 12 5 12H4ZM6.70703 16.707C6.31651 17.0976 5.68349 17.0976 5.29297 16.707C4.90244 16.3165 4.90244 15.6835 5.29297 15.293L5.79297 14.793C6.18349 14.4025 6.81651 14.4025 7.20703 14.793C7.59756 15.1835 7.59756 15.8165 7.20703 16.207L6.70703 16.707Z" fill="#B8B8B8"/>
</svg>
