<svg width="24" height="24" viewBox="0 0 24 24" fill="none" xmlns="http://www.w3.org/2000/svg">
<path d="M15.7456 12.1074C16.1249 11.4504 17.0732 11.4504 17.4525 12.1074L20.8665 18.0205C21.2458 18.6775 20.7716 19.4988 20.013 19.4988H13.1851C12.4265 19.4988 11.9523 18.6775 12.3316 18.0205L15.7456 12.1074Z" fill="#B8B8B8"/>
<path d="M10.3959 3.32819C10.5773 3.01394 10.9791 2.90628 11.2934 3.08771L16.4143 6.04426C16.7285 6.22569 16.8362 6.62751 16.6548 6.94175L13.6982 12.0627C13.5168 12.3769 13.115 12.4846 12.8007 12.3031L7.67981 9.34658C7.36557 9.16515 7.2579 8.76333 7.43933 8.44909L10.3959 3.32819Z" fill="#B8B8B8"/>
<circle cx="6.94207" cy="15.5567" r="3.94207" fill="#B8B8B8"/>
</svg>
