<svg width="24" height="24" viewBox="0 0 24 24" fill="none" xmlns="http://www.w3.org/2000/svg">
<path d="M15.746 12.1089C16.1253 11.4519 17.0737 11.4519 17.4531 12.1089L20.8661 18.022C21.2453 18.679 20.7712 19.4995 20.0126 19.4995H13.1855L13.0468 19.4907C12.3708 19.3984 11.9764 18.638 12.332 18.022L15.746 12.1089ZM14.9423 17.4995H18.2558L16.5986 14.6294L14.9423 17.4995Z" fill="#B8B8B8"/>
<path d="M10.3961 3.32983C10.5775 3.01559 10.9793 2.90719 11.2936 3.08862L16.4146 6.04562C16.7285 6.22715 16.8361 6.62896 16.6548 6.94307L13.6978 12.0641L13.6207 12.1715C13.447 12.3676 13.1709 12.4417 12.9224 12.359L12.8004 12.3043L7.68035 9.34734C7.36611 9.16591 7.25772 8.76413 7.43914 8.44989L10.3961 3.32983ZM9.84242 8.2868L12.6373 9.90006L14.2505 7.10517L11.4557 5.49191L9.84242 8.2868Z" fill="#B8B8B8"/>
<path d="M8.88379 15.5581C8.88379 14.4856 8.01481 13.6159 6.94238 13.6157C5.86981 13.6157 5 14.4855 5 15.5581C5.00017 16.6305 5.86991 17.4995 6.94238 17.4995V19.4995L6.73926 19.4946C4.72342 19.3925 3.10686 17.7761 3.00488 15.7603L3 15.5581C3 13.381 4.76524 11.6157 6.94238 11.6157L7.14453 11.6206C9.22759 11.726 10.8838 13.4489 10.8838 15.5581L10.8789 15.7603C10.7735 17.8432 9.05148 19.4993 6.94238 19.4995V17.4995C8.01471 17.4993 8.88362 16.6304 8.88379 15.5581Z" fill="#B8B8B8"/>
</svg>
