<svg width="24" height="24" viewBox="0 0 24 24" fill="none" xmlns="http://www.w3.org/2000/svg">
<path d="M8.99512 16C7.13227 16 5.56719 17.275 5.125 19H18.875C18.4328 17.275 16.8677 16 15.0049 16H8.99512ZM21 19.9951C20.9999 20.5502 20.55 20.9999 19.9951 21H4.00488C3.44996 20.9999 3.00006 20.5501 3 19.9951C3 16.6842 5.68417 14 8.99512 14H15.0049C18.3158 14 21 16.6842 21 19.9951Z" fill="#B8B8B8"/>
<path d="M15 8C15 6.34315 13.6569 5 12 5C10.3431 5 9 6.34315 9 8C9 9.65685 10.3431 11 12 11V13C9.23858 13 7 10.7614 7 8C7 5.23858 9.23858 3 12 3C14.7614 3 17 5.23858 17 8C17 10.7614 14.7614 13 12 13V11C13.6569 11 15 9.65685 15 8Z" fill="#B8B8B8"/>
</svg>
