<svg width="24" height="24" viewBox="0 0 24 24" fill="none" xmlns="http://www.w3.org/2000/svg">
<path d="M8.81441 4.66113C10.5877 3.89144 12.5804 3.7906 14.4228 4.37598C15.367 4.67605 16.2396 5.1602 17 5.7793V5C17 4.44772 17.4477 4 18 4C18.5522 4 19 4.44772 19 5V8.42676C18.9999 8.97899 18.5522 9.42676 18 9.42676H14.5C13.9477 9.42676 13.5 8.97899 13.5 8.42676C13.5 7.87447 13.9477 7.42676 14.5 7.42676H15.8505C15.2504 6.91406 14.5582 6.51694 13.8164 6.28125C12.4348 5.84244 10.941 5.91899 9.61128 6.49609C8.2813 7.07336 7.20497 8.11268 6.58199 9.42188C5.95901 10.7311 5.83169 12.222 6.22261 13.6182C6.6136 15.0141 7.49684 16.2214 8.70894 17.0166C9.92111 17.8118 11.3801 18.1416 12.8164 17.9443C14.2527 17.747 15.5695 17.0361 16.5224 15.9434C17.4752 14.8507 18 13.4498 18 12C18 11.4477 18.4477 11 19 11C19.5522 11 20 11.4477 20 12C20 13.9331 19.2998 15.8008 18.0293 17.2578C16.7588 18.7147 15.0039 19.6627 13.0888 19.9258C11.1737 20.1888 9.22761 19.7489 7.61128 18.6885C5.99514 17.628 4.81706 16.0186 4.29585 14.1572C3.77463 12.2957 3.94568 10.3081 4.77632 8.5625C5.60695 6.817 7.04119 5.43083 8.81441 4.66113Z" fill="#B8B8B8"/>
</svg>
