<svg width="24" height="24" viewBox="0 0 24 24" fill="none" xmlns="http://www.w3.org/2000/svg">
<path d="M16 10.5C16 7.46243 13.5376 5 10.5 5C7.46243 5 5 7.46243 5 10.5C5 13.5376 7.46243 16 10.5 16V18C6.35786 18 3 14.6421 3 10.5C3 6.35786 6.35786 3 10.5 3C14.6421 3 18 6.35786 18 10.5C18 14.6421 14.6421 18 10.5 18V16C13.5376 16 16 13.5376 16 10.5Z" fill="#B8B8B8"/>
<path d="M14.793 14.793C15.1835 14.4024 15.8166 14.4024 16.2071 14.793L20.7071 19.293C21.0976 19.6835 21.0976 20.3165 20.7071 20.707C20.3166 21.0976 19.6835 21.0976 19.293 20.707L14.793 16.207C14.4025 15.8165 14.4025 15.1835 14.793 14.793Z" fill="#B8B8B8"/>
</svg>
