<svg width="24" height="24" viewBox="0 0 24 24" fill="none" xmlns="http://www.w3.org/2000/svg">
<path d="M18 18C18 17.4477 17.5523 17 17 17C16.6311 17 16.3072 17.1995 16.1328 17.501C16.0484 17.647 16 17.8163 16 18C16 18.5523 16.4477 19 17 19C17.5523 19 18 18.5523 18 18ZM8 12C8 11.8163 7.95156 11.647 7.86719 11.501C7.69277 11.1995 7.36888 11 7 11C6.44772 11 6 11.4477 6 12C6 12.5523 6.44771 13 7 13C7.36888 13 7.69277 12.8005 7.86719 12.499C7.95156 12.353 8 12.1837 8 12ZM18 6C18 5.44773 17.5523 5.00002 17 5C16.4477 5 16 5.44772 16 6C16 6.18367 16.0484 6.35303 16.1328 6.49902C16.3072 6.80053 16.6311 7 17 7C17.5523 6.99998 18 6.55227 18 6ZM20 6C20 7.65684 18.6568 8.99998 17 9C16.2633 9 15.5898 8.73344 15.0684 8.29395L9.94434 11.4297C9.98003 11.6147 10 11.8052 10 12C10 12.1944 9.97991 12.3846 9.94434 12.5693L15.0684 15.7061C15.5898 15.2666 16.2633 15 17 15C18.6568 15 20 16.3432 20 18C20 19.6568 18.6568 21 17 21C15.3431 21 14 19.6569 14 18C14 17.8053 14.019 17.6146 14.0547 17.4297L8.93066 14.2939C8.40927 14.7332 7.73644 15 7 15C5.34315 15 4 13.6569 4 12C4 10.3431 5.34315 9 7 9C7.73621 9 8.40934 9.2661 8.93066 9.70508L14.0547 6.56934C14.0191 6.3847 14 6.19438 14 6C14 4.34315 15.3431 3 17 3C18.6568 3.00002 20 4.34316 20 6Z" fill="#B8B8B8"/>
</svg>
