<svg width="24" height="24" viewBox="0 0 24 24" fill="none" xmlns="http://www.w3.org/2000/svg">
<path d="M4 20V10C4 8.89544 4.89543 8.00001 6 8.00001H9C9.55228 8.00001 10 8.44773 10 9.00001C10 9.55229 9.55228 10 9 10H6V20H18V10H15C14.4477 10 14 9.55229 14 9.00001C14 8.44773 14.4477 8.00002 15 8.00001H18C19.1046 8.00001 20 8.89544 20 10V20C20 21.1046 19.1046 22 18 22H6C4.89543 22 4 21.1046 4 20ZM11 14V5.41407L9.70703 6.70704C9.31651 7.09756 8.68349 7.09756 8.29297 6.70704C7.90245 6.31652 7.90245 5.6835 8.29297 5.29298L11.293 2.29298L11.3691 2.22462C11.7619 1.90427 12.3409 1.92687 12.707 2.29298L15.707 5.29298C16.0976 5.6835 16.0976 6.31652 15.707 6.70704C15.3165 7.09756 14.6835 7.09756 14.293 6.70704L13 5.41407V14C13 14.5523 12.5523 15 12 15C11.4477 15 11 14.5523 11 14Z" fill="#B8B8B8"/>
</svg>
