<svg width="24" height="24" viewBox="0 0 24 24" fill="none" xmlns="http://www.w3.org/2000/svg">
<path d="M11.7588 15C12.7388 15 13.2301 16.185 12.5371 16.8779L10.4141 19H12.001C12.5531 19.0002 13.001 19.4478 13.001 20C13.0008 20.552 12.553 20.9998 12.001 21H8.24219C7.26232 21 6.77127 19.8151 7.46387 19.1221L9.58594 17H8.00098C7.44879 17 7.00114 16.5521 7.00098 16C7.00098 15.4477 7.44869 15 8.00098 15H11.7588ZM19.2588 8C20.2388 8 20.7301 9.18497 20.0371 9.87793L16.9141 13H19.501C20.0531 13.0002 20.501 13.4478 20.501 14C20.5008 14.552 20.053 14.9998 19.501 15H14.7422C13.7623 15 13.2713 13.8151 13.9639 13.1221L17.0859 10H14.501C13.9488 10 13.5011 9.55215 13.501 9C13.501 8.44772 13.9487 8 14.501 8H19.2588ZM10.7588 3C11.7386 3.00016 12.229 4.185 11.5361 4.87793L7.41504 9H11.001C11.5531 9.00015 12.001 9.44781 12.001 10C12.0009 10.5521 11.5531 10.9999 11.001 11H5.24219C4.2623 11 3.7712 9.81507 4.46387 9.12207L8.58594 5H5C4.44772 5 4 4.55228 4 4C4 3.44772 4.44772 3 5 3H10.7588Z" fill="#B8B8B8"/>
</svg>
