<svg width="24" height="24" viewBox="0 0 24 24" fill="none" xmlns="http://www.w3.org/2000/svg">
<path d="M18 14.5H19V12.5H18V14.5ZM10 14.5H16V12.5H10V14.5ZM5 14.5H8V12.5H5V14.5ZM18.4453 4.16796C18.9048 3.86162 19.5257 3.98578 19.832 4.44531C20.1935 4.98747 20.3361 5.53204 20.2754 6.0791C20.2212 6.56676 20.0058 6.9747 19.8945 7.19726C19.7559 7.47455 19.7212 7.5668 19.7129 7.6416C19.7112 7.65699 19.6935 7.73751 19.832 7.94531C20.1384 8.40483 20.0142 9.02567 19.5547 9.33203C19.0952 9.63838 18.4743 9.51421 18.168 9.05468C17.8065 8.51253 17.6638 7.96796 17.7246 7.42089C17.7788 6.93322 17.9942 6.52528 18.1055 6.30273C18.2441 6.02541 18.2788 5.9332 18.2871 5.85839C18.2888 5.84298 18.3065 5.76249 18.168 5.55468C17.8616 5.09515 17.9858 4.47431 18.4453 4.16796ZM14.4453 3.16796C14.9048 2.86162 15.5257 2.98578 15.832 3.44531C16.1935 3.98747 16.3361 4.53204 16.2754 5.0791C16.2212 5.56676 16.0058 5.9747 15.8945 6.19726C15.7559 6.47455 15.7212 6.5668 15.7129 6.6416C15.7112 6.65699 15.6935 6.73751 15.832 6.94531C16.1384 7.40483 16.0142 8.02567 15.5547 8.33203C15.0952 8.63838 14.4743 8.51421 14.168 8.05468C13.8065 7.51253 13.6638 6.96796 13.7246 6.42089C13.7788 5.93322 13.9942 5.52528 14.1055 5.30273C14.2441 5.02541 14.2788 4.9332 14.2871 4.85839C14.2888 4.84298 14.3065 4.76249 14.168 4.55468C13.8616 4.09515 13.9858 3.47431 14.4453 3.16796ZM21 15.4004C20.9998 16.0076 20.5076 16.4998 19.9004 16.5H4.09961C3.49241 16.4998 3.00021 16.0076 3 15.4004V11.5996C3.00021 10.9924 3.4924 10.5002 4.09961 10.5H19.9004C20.5076 10.5002 20.9998 10.9924 21 11.5996V15.4004Z" fill="#B8B8B8"/>
</svg>
