<svg width="24" height="24" viewBox="0 0 24 24" fill="none" xmlns="http://www.w3.org/2000/svg">
<path d="M11.4453 4.16798C11.7521 3.96345 12.1466 3.94427 12.4717 4.11817C12.7968 4.29219 13 4.63121 13 5.00001V19C13 19.3688 12.7968 19.7078 12.4717 19.8818C12.1466 20.0557 11.7521 20.0366 11.4453 19.832L5.69727 16H3C2.44772 16 2 15.5523 2 15V9.00001C2 8.44772 2.44772 8.00001 3 8.00001H5.69727L11.4453 4.16798ZM6.55469 9.83204C6.39042 9.94155 6.19742 10 6 10H4V14H6C6.19742 14 6.39042 14.0585 6.55469 14.168L11 17.1309V6.86817L6.55469 9.83204Z" fill="#B8B8B8"/>
<path d="M22 12.0003C22 9.34822 20.9466 6.80437 19.0713 4.92902C18.6808 4.53854 18.0478 4.53864 17.6572 4.92902C17.2667 5.31955 17.2667 5.95256 17.6572 6.34308C19.1574 7.84336 20 9.87865 20 12.0003C19.9999 14.1218 19.1572 16.1564 17.6572 17.6566C17.2667 18.0471 17.2667 18.6801 17.6572 19.0706C18.0478 19.4611 18.6808 19.4611 19.0713 19.0706C20.9464 17.1954 21.9999 14.6522 22 12.0003Z" fill="#B8B8B8"/>
<path d="M17.9999 11.9996C17.9998 11.2118 17.8443 10.4316 17.5428 9.70372C17.2413 8.97587 16.7992 8.31451 16.2421 7.75743C15.8515 7.36709 15.2185 7.36697 14.828 7.75743C14.4377 8.14791 14.4377 8.78101 14.828 9.17149C15.1994 9.54293 15.4942 9.98404 15.6952 10.4693C15.8962 10.9545 15.9998 11.4745 15.9999 11.9996C15.9999 12.5249 15.8962 13.0456 15.6952 13.5309C15.4942 14.0161 15.1994 14.4573 14.828 14.8287C14.4378 15.2192 14.4377 15.8523 14.828 16.2428C15.2184 16.6332 15.8515 16.633 16.2421 16.2428C16.7991 15.6857 17.2413 15.0243 17.5428 14.2965C17.8444 13.5685 17.9999 12.7875 17.9999 11.9996Z" fill="#B8B8B8"/>
</svg>
