<svg width="24" height="24" viewBox="0 0 24 24" fill="none" xmlns="http://www.w3.org/2000/svg">
<path d="M19.5996 15.584C20.1055 15.3628 20.6947 15.5937 20.916 16.0996C21.1372 16.6055 20.9063 17.1947 20.4004 17.416L12.4004 20.916C12.145 21.0276 11.855 21.0276 11.5996 20.916L3.59961 17.416C3.09373 17.1947 2.86285 16.6055 3.08398 16.0996C3.30531 15.5937 3.89448 15.3628 4.40039 15.584L12 18.9082L19.5996 15.584ZM19.5996 11.584C20.1055 11.3628 20.6947 11.5937 20.916 12.0996C21.1372 12.6055 20.9063 13.1947 20.4004 13.416L12.4004 16.916C12.145 17.0276 11.855 17.0276 11.5996 16.916L3.59961 13.416C3.09373 13.1947 2.86285 12.6055 3.08398 12.0996C3.30531 11.5937 3.89448 11.3628 4.40039 11.584L12 14.9082L19.5996 11.584ZM11.6602 3.05956C11.9161 2.96704 12.2008 2.98223 12.4473 3.10546L20.4473 7.10546C20.786 7.27485 21 7.62122 21 7.99999C21 8.37876 20.786 8.72513 20.4473 8.89452L12.4473 12.8945C12.1657 13.0353 11.8343 13.0353 11.5527 12.8945L3.55273 8.89452C3.21395 8.72513 3 8.37877 3 7.99999C3 7.62122 3.21395 7.27485 3.55273 7.10546L11.5527 3.10546L11.6602 3.05956ZM6.23633 7.99999L12 10.8818L17.7637 7.99999L12 5.11816L6.23633 7.99999Z" fill="#B8B8B8"/>
</svg>
