<svg width="24" height="24" viewBox="0 0 24 24" fill="none" xmlns="http://www.w3.org/2000/svg">
<path d="M10.1026 4.03028C10.7104 2.20689 13.2897 2.20688 13.8975 4.03028L15.2207 8.00001H19C20.9219 8.00001 21.7374 10.4463 20.2002 11.5996L17.1992 13.8506L18.7842 18.0772C19.4776 19.9263 17.3561 21.5551 15.749 20.4072L12 17.7285L8.25099 20.4072C6.64394 21.5551 4.52239 19.9263 5.21583 18.0772L6.80079 13.8506L3.79982 11.5996C2.26262 10.4463 3.07812 8.00001 5.00001 8.00001H8.77931L10.1026 4.03028ZM10.6768 8.63282C10.4045 9.44933 9.64005 9.99998 8.77931 10H5.00001L8.00099 12.25C8.71152 12.7829 8.98472 13.7211 8.67286 14.5527L7.0879 18.7793L10.8379 16.1016C11.5332 15.605 12.4668 15.605 13.1621 16.1016L16.9121 18.7793L15.3272 14.5527C15.0153 13.7211 15.2885 12.7829 15.999 12.25L19 10H15.2207C14.36 9.99998 13.5956 9.44933 13.3233 8.63282L12 4.66212L10.6768 8.63282Z" fill="#B8B8B8"/>
</svg>
