<svg width="24" height="24" viewBox="0 0 24 24" fill="none" xmlns="http://www.w3.org/2000/svg">
<path d="M20 12C20 7.58172 16.4183 4 12 4C7.58172 4 4 7.58172 4 12C4 16.4183 7.58172 20 12 20C16.4183 20 20 16.4183 20 12ZM22 12C22 17.5228 17.5228 22 12 22C6.47715 22 2 17.5228 2 12C2 6.47715 6.47715 2 12 2C17.5228 2 22 6.47715 22 12Z" fill="#B8B8B8"/>
<path d="M11 12.4648V7C11 6.44772 11.4477 6 12 6C12.5523 6 13 6.44772 13 7V12.4648L15.5547 14.168C16.0142 14.4743 16.1384 15.0952 15.832 15.5547C15.5257 16.0142 14.9048 16.1384 14.4453 15.832L11.8906 14.1289C11.3342 13.758 11 13.1335 11 12.4648Z" fill="#B8B8B8"/>
</svg>
