<svg width="24" height="24" viewBox="0 0 24 24" fill="none" xmlns="http://www.w3.org/2000/svg">
<path d="M15 3C15.4303 3 15.812 3.27541 15.9482 3.68359L16.7207 6H19C19.5523 6 20 6.44772 20 7C20 7.55228 19.5523 8 19 8H18.9258L17.9971 20.0771C17.9568 20.5979 17.5224 21 17 21H7C6.47761 21 6.04322 20.5979 6.00293 20.0771L5.07422 8H5C4.44772 8 4 7.55228 4 7C4 6.44772 4.44772 6 5 6H7.2793L8.05176 3.68359L8.11328 3.53711C8.28349 3.2108 8.62335 3 9 3H15ZM7.92578 19H16.0742L16.9199 8H7.08008L7.92578 19ZM9 16V11C9 10.4477 9.44772 10 10 10C10.5523 10 11 10.4477 11 11V16C11 16.5523 10.5523 17 10 17C9.44772 17 9 16.5523 9 16ZM13 16V11C13 10.4477 13.4477 10 14 10C14.5523 10 15 10.4477 15 11V16C15 16.5523 14.5523 17 14 17C13.4477 17 13 16.5523 13 16ZM9.38672 6H14.6133L14.2793 5H9.7207L9.38672 6Z" fill="#B8B8B8"/>
</svg>
