<svg width="24" height="24" viewBox="0 0 24 24" fill="none" xmlns="http://www.w3.org/2000/svg">
<path d="M7.17383 17C7.06306 17.3131 7 17.649 7 18C7 18.351 7.06306 18.6869 7.17383 19H4C3.44772 19 3 18.5523 3 18C3 17.4477 3.44772 17 4 17H7.17383ZM20 17C20.5523 17 21 17.4477 21 18C21 18.5523 20.5523 19 20 19H12.8262C12.9369 18.6869 13 18.351 13 18C13 17.649 12.9369 17.3131 12.8262 17H20ZM14.1738 11C14.0631 11.3131 14 11.649 14 12C14 12.351 14.0631 12.6869 14.1738 13H4C3.44772 13 3 12.5523 3 12C3 11.4477 3.44772 11 4 11H14.1738ZM20 11C20.5523 11 21 11.4477 21 12C21 12.5523 20.5523 13 20 13H19.8262C19.9369 12.6869 20 12.351 20 12C20 11.649 19.9369 11.3131 19.8262 11H20ZM4.17383 5C4.06306 5.31306 4 5.649 4 6C4 6.351 4.06306 6.68694 4.17383 7H4C3.44772 7 3 6.55228 3 6C3 5.44772 3.44772 5 4 5H4.17383ZM20 5C20.5523 5 21 5.44772 21 6C21 6.55228 20.5523 7 20 7H9.82617C9.93694 6.68694 10 6.351 10 6C10 5.649 9.93694 5.31306 9.82617 5H20Z" fill="#B8B8B8"/>
<path d="M11 18C11 17.4477 10.5523 17 10 17C9.44772 17 9 17.4477 9 18C9 18.5523 9.44772 19 10 19C10.5523 19 11 18.5523 11 18ZM18 12C18 11.4477 17.5523 11 17 11C16.4477 11 16 11.4477 16 12C16 12.5523 16.4477 13 17 13C17.5523 13 18 12.5523 18 12ZM8 6C8 5.44772 7.55228 5 7 5C6.44772 5 6 5.44772 6 6C6 6.55228 6.44772 7 7 7C7.55228 7 8 6.55228 8 6ZM13 18C13 19.6569 11.6569 21 10 21C8.34315 21 7 19.6569 7 18C7 16.3431 8.34315 15 10 15C11.6569 15 13 16.3431 13 18ZM20 12C20 13.6569 18.6569 15 17 15C15.3431 15 14 13.6569 14 12C14 10.3431 15.3431 9 17 9C18.6569 9 20 10.3431 20 12ZM10 6C10 7.65685 8.65685 9 7 9C5.34315 9 4 7.65685 4 6C4 4.34315 5.34315 3 7 3C8.65685 3 10 4.34315 10 6Z" fill="#B8B8B8"/>
</svg>
