<svg width="24" height="24" viewBox="0 0 24 24" fill="none" xmlns="http://www.w3.org/2000/svg">
<path d="M4 19V15C4 14.4477 4.44772 14 5 14C5.55228 14 6 14.4477 6 15V19H18V15C18 14.4477 18.4477 14 19 14C19.5523 14 20 14.4477 20 15V19C20 20.1046 19.1046 21 18 21H6C4.89543 21 4 20.1046 4 19ZM11 15V6.41407L8.70703 8.70704C8.31651 9.09756 7.68349 9.09756 7.29297 8.70704C6.90245 8.31652 6.90245 7.6835 7.29297 7.29298L11.293 3.29298L11.3691 3.22462C11.7619 2.90427 12.3409 2.92686 12.707 3.29298L16.707 7.29298C17.0976 7.6835 17.0976 8.31652 16.707 8.70704C16.3165 9.09756 15.6835 9.09756 15.293 8.70704L13 6.41407V15C13 15.5523 12.5523 16 12 16C11.4477 16 11 15.5523 11 15Z" fill="#B8B8B8"/>
</svg>
