<svg width="24" height="24" viewBox="0 0 24 24" fill="none" xmlns="http://www.w3.org/2000/svg">
<path d="M15.9189 4C16.6999 3.21903 17.966 3.2192 18.747 4L20 5.25293C20.7808 6.034 20.7809 7.30009 20 8.08106L10.1552 17.9258C10.0033 18.0778 9.82793 18.2047 9.6357 18.3008L5.78902 20.2236C4.49969 20.8683 3.13165 19.5003 3.77632 18.2109L5.69917 14.3643C5.7953 14.172 5.9222 13.9967 6.07417 13.8447L15.9189 4ZM7.48824 15.2588L6.23531 17.7637L8.74117 16.5117L15.9189 9.33301L14.666 8.08008L7.48824 15.2588ZM16.08 6.66602L17.333 7.91895L18.5859 6.667L17.333 5.41407L16.08 6.66602Z" fill="#B8B8B8"/>
</svg>
